<svg id="poland-map" xmlns="http://www.w3.org/2000/svg" width="576" height="545.708" viewBox="0 0 576 545.708">
  <path id="zachodnio-pomorskie" d="M19.676,183.847l2.047,2.032c.247.314.439.827.748.912,3.125.852,4.305,3.325,5.227,6.06a9.418,9.418,0,0,0,.794,1.481c1.641.255,3.031.181,3.736-1.4.765-1.716-.1-3.646-2.221-5.226a37.01,37.01,0,0,1,.043-4.185,3.935,3.935,0,0,1,.983-2.389c1.941-1.679,2.15-3.735,1.8-6.032a36.642,36.642,0,0,1-.5-3.881c-.075-1.664-.892-2.142-2.48-2.285-3.554-.319-6.728.748-9.866,2.177-1.874.853-5.656.146-7.036-1.238-1.556-1.56-1.883-4.893-.689-7.235.279.059.642.03.846.2,2.808,2.291,5.733,1.675,8.775.526,4.3-1.627,8.6-3.337,13.009-4.616a215.334,215.334,0,0,0,22.356-7.975c7.585-3.137,15.231-6.25,23.366-7.8,8.175-1.56,16.337-3.2,24.541-4.594a47.457,47.457,0,0,0,17.538-6.842,27.119,27.119,0,0,0,6.078-4.877A119.615,119.615,0,0,0,137.747,115a10.657,10.657,0,0,1,13.783-3.722,3.114,3.114,0,0,1,.139.849c-.235,2.143.2,3.746,2.724,4.158,1.222.2,1.322,1.367,1.353,2.4.064,2.146.1,4.293.156,6.771-1.454.019-2.618.86-2.424,2.919.125,1.327.139,2.665.215,4.25l2.2,1.258c-.025,1.842-1.023,2.557-2.516,3.066a20.122,20.122,0,0,0-4.317,2.067,2.961,2.961,0,0,0-.609,4.841,7.166,7.166,0,0,1,1.528,3.794,18.181,18.181,0,0,0,1.927,5.912c1.461,2.362,2.223,4.614,1.659,7.38a4.4,4.4,0,0,0,.422,3.133c.52.714,1.84.846,2.9,1.27-.142,1.907,1.148,3.152,2.646,3.926a5.066,5.066,0,0,1,2.934,4.606l-5.037,1.52a2.7,2.7,0,0,0-2.129,2.594,2.524,2.524,0,0,0,1.735,2.549,8.924,8.924,0,0,1,1.385.575c.83.589,1.593,1.273,2.023,1.623-1.424,1.657-2.676,2.958-3.741,4.4-1.1,1.482-1.07,2.662.308,3.673a3.007,3.007,0,0,1,1.292,3.627,3.2,3.2,0,0,1-3.058,2.465,5.757,5.757,0,0,0-4.416,2.283,15.451,15.451,0,0,0-1.91,4.3c-1.469,4.955-4.455,7.657-9.2,7.238-1.487-.132-2.983-.247-4.451-.507-2.346-.416-3.9.775-3.367,3.11.768,3.389,2.146,6.506,5.946,7.683,1.719.533,3.411,1.17,5.074,1.859,1.165.483,2.5.871,2.849,2.6-1.265.763-2.853,1.269-3.693,2.354-.891,1.152-1.071,2.854-1.594,4.413a1.978,1.978,0,0,1-.684-.049c-2.629-.951-2.881-1-4.183,1.133a4.167,4.167,0,0,1-3.665,2.156,5.012,5.012,0,0,0-4.864,4.172,13.926,13.926,0,0,0-.583,2.941,4.126,4.126,0,0,1-1.961,3.528,23.444,23.444,0,0,1-12.284,4.3,9.366,9.366,0,0,1-3.485-.773c-2.712-1.049-2.717-1.15-2.393-4.115a5.08,5.08,0,0,0-2.929-4.815c-1.989-.923-3.151-.65-4.815,1.04a7.31,7.31,0,0,1-2.247,1.93c-2.281.846-3.8,1.935-2.452,4.74-2.314.546-2,2.279-1.89,3.822a5.48,5.48,0,0,1-1.321.418c-1.886.029-3.743-.081-5.536.868-.966.51-1.823-.194-2.585-1-2.593-2.758-3.481-2.92-6.788-1.326-3.126,1.507-6.181,3.088-9.788,3.261-1.693.081-2.2,1.781-1.094,3.123a20.5,20.5,0,0,0,1.761,1.677c-4.02,3.474-9.175,3.852-13.523,6.439-.642-2.7-2.417-2.049-4.039-1.538a24.767,24.767,0,0,0-1.634-2.308c-1.044-1.169-2.909-1.526-3.772-.728-1.14,1.055-.706,2.144.076,3.206.075.1-.044.348-.074.527-2.607,1.027-2.7,1.024-2.755,3.515-.034,1.544-.576,2.476-2.08,2.845a2.159,2.159,0,0,0-1.787,2.665,4.229,4.229,0,0,1-.489,2.221,34.867,34.867,0,0,1-2.354,3.839c-.712,1.024-1.561,1.953-2.57,3.2-1.543-2.546-3.365-2.8-5.38-1.438-3.76-3.032-4.844.611-6.6,2.685a25.842,25.842,0,0,1-6.158-7.457c-2.54-4.9-5.734-9.257-11.777-10.23-1.038-.167-1.4-.9-1.638-1.887-.529-2.229.485-3.9,1.775-5.5.754-.935,1.9-1.867,1.368-3.146-1.119-2.7.5-4.106,2.248-5.555,2.083-1.732,4.232-3.394,6.211-5.238a9.458,9.458,0,0,0,3.288-6.515,32.087,32.087,0,0,1,1.82-9.709,24.929,24.929,0,0,0,2.159-10.758c-.195-3.895-.728-7.772-1.052-11.661a12.713,12.713,0,0,0-2.094-5.883,8.762,8.762,0,0,1-1.107-3.345c-.416-2.773-.669-5.571-.985-8.359a11.9,11.9,0,0,1,1.47-8.127,5.878,5.878,0,0,1,4.434,2.84" transform="translate(0 -84.546)" fill="#e1e5ee"/>
  <path id="mazowieckie" d="M1473.542,667.5c-1.281,1.323-2.5,2.713-3.859,3.951-1.631,1.488-1.607,2.533.261,3.945a6.692,6.692,0,0,1,.757.91,9.242,9.242,0,0,1-1.848.807c-.774.147-1.613-.032-2.38.135-2.195.479-2.639,1.572-1.618,3.721.117.247.23.5.431.93-1.456.379-2.557.9-2.976,2.543a2.333,2.333,0,0,1-3.465,1.133c-1.182-.647-2.169-1.34-3.558-.344-.355.255-1.306-.216-1.933-.475-.644-.266-1.2-.747-1.842-1.016-1.795-.749-2.915-.055-3.09,1.92a7.251,7.251,0,0,0,.159,1.79,1.9,1.9,0,0,1-1.073,2.236,1.965,1.965,0,0,1-2.434-.564c-.44-.408-.8-.907-1.243-1.309-2.254-2.036-4.9-1.412-5.347,1.526-.536,3.523-2.628,4.842-5.683,5.246l-1.952-4.618-1.712,3.767-3.288-2.551a8.736,8.736,0,0,0-1.779,1.553c-1.007,1.553-2.16,1.445-3.613.719-1.3-.649-2.7-1.1-4.113-1.669-.612,1.06-.984,1.759-1.407,2.423a2.784,2.784,0,0,1-2.462,1.424,15.314,15.314,0,0,0-3.518.64c-4.164,1.125-5.358,5.586-2.323,8.59.141.139.428.2.473.354a5.178,5.178,0,0,1,.521,2.409c-.142.538-1.113,1.089-1.787,1.2-1.013.167-2.223.023-2.27,1.357a4.131,4.131,0,0,0,.87,2.681,2.175,2.175,0,0,0,3.027.02c1.574-1.151,2.752-.7,3.823.8-.722,2.437-2.087,4.074-4.717,4.459a5.1,5.1,0,0,0-2.259.746,2.287,2.287,0,0,0-.712,1.754c.024.378.732.906,1.218,1.027,2.835.7,3.078,1.507,1.208,3.785a6.624,6.624,0,0,0-1.277,2.584,2.365,2.365,0,0,1-2.456,2.085c-3.339.3-3.331.389-5.209,2.706a25.063,25.063,0,0,0-3.079-2.319c-1.832-1-2.839-.432-3.164,1.58a5.278,5.278,0,0,0-.087,1.494c.294,2.265,4.766,6.175,7.016,6.175,3.023,0,3.92.656,4.723,3.411.475,1.63,1.066,3.233,1.44,4.886a28.62,28.62,0,0,1,.347,3.693,11.887,11.887,0,0,0-2.7.447,2.254,2.254,0,0,0-.839,3.879,28.018,28.018,0,0,0,3.227,2.548c-.356.49-.783,1.1-1.232,1.692a11.271,11.271,0,0,0-1.444,1.88c-1.052,2.291-.609,3.041,2.165,3.668-.423,2.428-.667,4.92-1.309,7.305-1.546,5.733-.96,6.777.58,10.138l-3.8,3.578c-.841-.371-2-.825-3.1-1.4a16.276,16.276,0,0,1-1.386-1.143c-2.421-1.634-3.111-1.487-4.758.95-5.479.486-5.479.486-6.958,4.251-1.723.2-3.146-.253-3.812-2.046-.568-1.527-1.837-1.95-3.19-2.45a19.893,19.893,0,0,0-9.74-.846,14.123,14.123,0,0,1-1.666.009c.1-2.16-.415-4.012-2.731-5.044a14.128,14.128,0,0,0,1.217-2.17,3.347,3.347,0,0,0,.163-1.966c-.455-1.4-1.894-2.379-2.932-2.133-1.449.344-1.732,1.5-1.808,2.775-.035.595-.077,1.189-.111,1.711a3.773,3.773,0,0,1-4.356-.126,5.257,5.257,0,0,0-4.314-.445c-1.711.44-3.481,1.041-5.05-.646-.309-.332-1.443-.047-2.128.169-.516.162-.924.669-1.821.786.32-.925.64-1.85.933-2.7-1.114-1.113-2.16-2.131-3.175-3.18-1.783-1.844-3.832-1.921-6.181-.752a20.541,20.541,0,0,0-1.879-3.794,4.73,4.73,0,0,1-1.333-3.794c.056-.432-1.117-1.281-1.854-1.494a10.747,10.747,0,0,0-2.909-.063c-1.139-3.253.143-5.543,2.4-7.35a10.848,10.848,0,0,0,3.719-6.687c.387-1.874-.389-2.632-2.271-2.307a19.531,19.531,0,0,1-2.315.383c-.344.017-.706-.307-1.134-.511,0-.422-.134-.872.02-1.179,1.838-3.659.137-6.578-1.9-9.45a5.876,5.876,0,0,1-1.184-2c-.442-2.287.821-3.744,3.2-4.07,2.422-.333,4.577.6,6.672,1.482,5.356,2.25,6.147.886,7.649-3.969.972-3.143.438-4.12-2.653-5.077-1.53-.474-1.633-1.641-1.866-2.775a2.95,2.95,0,0,1,1.011-3.216c2.047-1.533,2.069-2.093.2-3.682-2.414-2.051-5.006-3.632-8.39-2.9-.294-1.071-.444-1.851-.723-2.582a2.73,2.73,0,0,0-3.084-1.854q-2.391.221-4.781.454c-.4.039-.921-.036-1.167.185-1.749,1.569-3.58,1.382-5.557.507-.506-.224-1.241.1-1.78-.094a7.5,7.5,0,0,1-1.653-1.224c1.628-1.365,3.032-2.281,2.446-4.631-.564-2.265-2.682-2.187-3.993-3.6.489-.5.958-.96,1.408-1.439a10.757,10.757,0,0,0,1.782-1.985c1.484-2.726.782-4.425-2.258-5.094a15.637,15.637,0,0,1-6.72-3.148,3.1,3.1,0,0,1-1.343-2.8c.145-3.186-1.448-5.512-3.951-7.332-1.295-.942-2.547-1.945-3.781-2.968-2.171-1.8-3.918-1.571-5.438.767-.316.486-.613.985-1,1.611a5.63,5.63,0,0,0-6.667,1.218c-.434.4-1.572.708-1.873.453-1.7-1.437-3.164-.6-4.305.116-2.29-1.66-4.259-3.335-6.46-4.607a58.612,58.612,0,0,0-6.29-2.713c-2.835-1.219-3.59-3.052-3.02-6.07.208-1.1-.419-2.363-.762-4.019,1.36-1.583,5.419-2,4.21-6.2l-2.809-1.183a38.978,38.978,0,0,0,3.611-3.733c1.539-2.077,1.372-2.514-.741-4.005-1.369-.966-1.367-2.256.274-3.619,1.506-1.251,2.53-2.542,1.995-4.629-.082-.322.2-.738.358-1.239,1.581.114,3.424.878,4.354-.975.891-1.777-.558-3.223-1.1-4.779a1.453,1.453,0,0,0-.784-.872c-2.567-.614-2.8-3.185-4.044-4.521,1.19-1.536,2.921-2.824,3.154-4.342.231-1.5-1.05-3.237-1.8-5.213,1.168.1,2.109.212,3.052.251,3.674.152,4.474-.775,3.8-4.336-.032-.168.107-.368.258-.842,1.042.889,1.96,1.758,2.965,2.511,1.85,1.384,3.628.747,3.873-1.533a10.444,10.444,0,0,0-.6-3.783c-.811-2.875-1.74-5.716-2.585-8.454,2.018-1.617,3.789-3.07,5.605-4.466a2.076,2.076,0,0,1,1.341-.47c3.358.424,5.1-1.17,5.666-4.352a3.813,3.813,0,0,1,.434-.88c1.209.817,2.439,1.554,3.546,2.445a2.32,2.32,0,0,1,.716,1.539c.1,1.934,1.421,2.652,2.966,2.83a16.686,16.686,0,0,0,5.056-.081c3.85-.759,7.642-1.655,11.588-.578,1.953.533,3.439-.672,4.989-1.616a4.405,4.405,0,0,0,2.528-4.059,6.887,6.887,0,0,1,1.708-3.7c1.4-1.781,2.229-1.914,4.054-.474a3.345,3.345,0,0,0,4.632,0c1.891-1.465,4.044-2.786,5.433-4.653a6.251,6.251,0,0,1,5.085-2.639,7.555,7.555,0,0,0,4.577-1.815c1.589-1.234,3.808-1.568,5.238-3.215.193-.222,1.039-.158,1.374.074,1.559,1.08,2.9.547,4.1-.513a9.556,9.556,0,0,1,3.95-1.933c1.776-.51,3.347-1.738,5.077-2.694,2.3,1.469,4.62.929,6.693-.447,1.482-.984,2.729-1.862,4.659-1.207.71.241,1.726-.294,2.564-.586,1.313-.457,2.593-1.01,4.186-1.64l3.97,7.622a12.874,12.874,0,0,0-.1,2.877c.251,1.735,1.953.879,2.964,1.362.183,1.016-.374,1.244-1.194,1.112a22.546,22.546,0,0,0-2.355-.476c-1.605-.081-2.1.715-1.627,2.264.55,1.794,1,3.617,1.531,5.417.168.568.456,1.1.68,1.651.515,1.27,1.018,2.545,1.537,3.813a40.822,40.822,0,0,0,2.446,5.76c1.158,1.917,2.058,2.019,4.268,1.057a2.072,2.072,0,0,1,3.032.933c.3.525.532,1.085.849,1.595,1.216,1.955,1.782,2.145,4.639,1.31a13.914,13.914,0,0,1-.862,2.528c-1.858,3.129-1.009,4.966,2.661,5.617a2.126,2.126,0,0,1,.532.257c1.521,2.317,1.822,4.611-.272,6.831.381.806.685,1.542,1.065,2.237,2.418,4.435,5.834,4.973,10.763,1.652,2.791-1.88,4.095-2.354,6.262-1.01.218.135.31.473.574.9a10.367,10.367,0,0,0-1.8.3c-1.386.5-1.92,1.931-.831,2.78,1.288,1,1.694,2.411,2.481,3.648,1.557,2.448,2.885,2.662,5.167.887.836-.651,1.671-1.3,2.576-2.009a5.1,5.1,0,0,1,1.272,4.095c-.283,4-.38,8.013-.468,12.022-.051,2.334,1.761,3.715,3,5.376a12.71,12.71,0,0,1,1.551,2.116,10.03,10.03,0,0,0,3.827,4.887A2.767,2.767,0,0,1,1441,652.75c-.279,3.013,2.064,4.66,3.654,6.591,1.052,1.278,2.862.64,4.279.272a4.864,4.864,0,0,1,3.967.377,5.717,5.717,0,0,0,3.7.192c3.166-.727,5.96.345,8.667,1.608a6.6,6.6,0,0,1,2.409,2.576c1.277,2.064,2.743,3.488,5.5,2.412l.367.72" transform="translate(-964.227 -430.251)" fill="#e1e5ee"/>
  <path id="lubelskie" d="M1857.66,1158.566a10.476,10.476,0,0,1-.548-2.191c-.056-3.262-.5-6.345-2.525-9.114-.508-.694-.332-2.138-.045-3.112a4.874,4.874,0,0,0-.934-5.045,3.487,3.487,0,0,1-.744-3.347,10.4,10.4,0,0,0-.705-6.114,12.507,12.507,0,0,1-.47-5.854c.339-2.869,1.15-5.683,1.764-8.52.577-2.662.522-2.744-2.593-3.258.627-.818,1.161-1.487,1.664-2.178a18.505,18.505,0,0,0,1.511-2.2c.577-1.1.22-1.844-.97-2.353-2.135-.914-2.112-.965-2.763-2.737a3.115,3.115,0,0,1,1.023-.392c2.076.006,2.648-.407,3.005-2.29.335-1.766-2.1-9.97-3.316-11.355a4.383,4.383,0,0,0-3.995-1.547c-2.314.2-6.047-3.175-6.257-5.46-.031-.345.228-.716.522-1.559,1.094.849,2,1.511,2.862,2.23,1.562,1.309,2.284,1.354,3.286-.448a3.008,3.008,0,0,1,2.993-1.526c2.425-.068,4.088-.887,4.247-3.611a2.673,2.673,0,0,1,.63-1.315c2.419-3.162,2.448-3.51.254-7.032,3.375-.655,4.928-3.1,5.971-6.026-1.95-2.91-2.958-3.255-6.09-1.92-1.051.448-1.669.3-2.059-1.071a7.821,7.821,0,0,1,1.409-.4,2.85,2.85,0,0,0,2.973-2.449c.272-1.529.314-2.79-1.306-3.9-2.442-1.676-1.864-4.984.921-6.126a7.34,7.34,0,0,1,3.172-.819,4.284,4.284,0,0,0,4.571-2.674c.126-.245.433-.4.8-.717a37.726,37.726,0,0,0,4.654,1.824c1.871.477,2.649-1.414,3.873-2.391,1.583.663,2.424,3.351,4.543,1.485,2.022,2.1,1.955,1.769,4.471,1.134,3.192-.806,4.224-2.932,4.845-5.729.463-2.085,1.8-2.472,3.421-1.1.455.385.761.952,1.227,1.319,1.023.8,2.036,1.694,3.513.868,1.34-.749,2.185-1.7,2-3.362-.094-.868-.016-1.755-.016-3.185a22.857,22.857,0,0,0,2.993,1.354,30.618,30.618,0,0,0,3.429.582,9.948,9.948,0,0,1,1.935.315c2.568.967,4.114.4,5.453-1.919a4.111,4.111,0,0,1,1.635-1.456c1.834-.949,1.893-1.038.739-2.818-.21-.323-.389-.666-.817-1.405a18.431,18.431,0,0,1,2.476-.85c.675-.13,1.514.217,2.068-.065a4.63,4.63,0,0,0,1.857-1.788c.48-.866-.2-1.471-.976-1.885-.346-.183-.651-.444-1.306-.9a37.018,37.018,0,0,0,3.464-3.213,43.532,43.532,0,0,0,2.791-4.2l3.155,1.985a13.724,13.724,0,0,1-.892,1.507c-.686.854-1.181,1.862-.3,2.682a7.321,7.321,0,0,0,2.613,1.128,1.243,1.243,0,0,0,.868-.186c1.867-1.05,3.464-.614,4.9,1.008,1.615-.89,3.026-1.44,4.3.648.9,1.471,2.357.077,3.756-.126.222.486.474.984.674,1.5.106.276.016.708.194.865a75.143,75.143,0,0,0,6.236,5.229c.546.384,1.853-.311,2.81-.512a10.086,10.086,0,0,1,1.784,11.12,28.738,28.738,0,0,0-1.723,5.969c-.145.769.479,1.683.83,2.771a11.552,11.552,0,0,0-1.355,1.681,3.834,3.834,0,0,0,.261,4.227c1.443,2.268,1.3,3.207-.936,4.689a4.4,4.4,0,0,0-1.86,5.516,12.787,12.787,0,0,1,.068,7.614,17,17,0,0,0,.161,6.556c.4,2.6,1.66,3.121,4.305,2.207a5.971,5.971,0,0,1,1.033-.141c.733,1.38,1.036,3.341,3.267,3.19.6,1.347,1.253,2.672,1.764,4.051a23.4,23.4,0,0,1,.585,2.642c.648,2.678.542,4.928-1.872,7.013-2.366,2.044-2.007,4.724.558,6.689a5.867,5.867,0,0,1,2.595,4.448c.254,2.687,1.542,3.476,4.359,3.206,3.1-.3,6.488,2.209,6.751,5.262.181,2.094.371,3.919,2.642,4.89.586.251.956,1.243,1.211,1.97a6.667,6.667,0,0,1,.485,2.652c-.337,4.064,1.63,7.255,3.457,10.646a15.889,15.889,0,0,0,5.543,6.47c.374.231.571.748.989,1.325-.661.211-1.1.377-1.558.495-2.137.553-4.269,3.111-3.3,4.826,1.172,2.072,2.3,4.129,3.33,6.277.259.541,1.78.478,2.738.7.63,2.46-.023,4.755-.6,7.2-.608,2.555-.208,5.344-.3,8.03-.073,2.2-.11,4.406-.352,6.588-.438,3.952-3.511,6.68-7.513,7.23a52.666,52.666,0,0,0-8.8,1.868c-2.265.722-4.464,1.852-4.5,4.958-.008.744-1.006,1.7-1.781,2.172a10.769,10.769,0,0,0-4.271,4.885,21.182,21.182,0,0,1-3.021,3.9l-3.739-.761c-.371-1.157-.421-2.594-1.162-3.251-.71-.629-2.137-.448-3.425-.651.2-2.117-.016-4.21-2.639-5.139-.365-.129-.378-1.084-.686-1.573-1.149-1.826-2.827-2.07-4.517-.7-.931.751-1.855,1.511-2.987,2.433-.645-.443-1.291-.844-1.89-1.307-2.028-1.566-3.347-1.252-4.512.945a19.923,19.923,0,0,1-2.314,3.473c-1.133,1.348-2.441,2.549-4.1,4.249a24.937,24.937,0,0,1-13.253-.366c-1.465-.472-3.182-.158-4.782-.221-1.229-.048-2.458-.123-3.687-.185q-.012-.345-.025-.69c.708-.159,1.423-.292,2.123-.483a1.883,1.883,0,0,0,1.642-2.162,1.639,1.639,0,0,0-1.993-1.4,28.52,28.52,0,0,0-5.917.876c-2.286.746-3.962.635-5.6-1.348a22.321,22.321,0,0,0-3.929-3.073c.951-1.653,3.82-2.008,2.021-5.272,2.439,1.971,4.344,1.19,6.18.418,2.015-.848,2-1.562.075-3.03.2-.786.775-1.768.5-2.308-.341-.661-1.4-.952-2.275-1.48.081-.6.193-1.275.259-1.955a2.557,2.557,0,0,0-2.036-2.911c-2.477-.8-4.939-1.648-7.418-2.445a3.691,3.691,0,0,0-1.755-.319c-3.027.673-4.782-1.108-6.153-3.29-.871-1.387-1.816-2.06-3.518-1.522a5.617,5.617,0,0,1,.921-4.957c1.606-2.085,2.251-4.052.133-6.4-1.189-1.316-1.766-3.25-3.842-3.477-2.392-.262-4.847-.558-6.948,1.077-2.514,1.957-5.336,2.045-8.574,1.511" transform="translate(-1412.878 -778.866)" fill="#e1e5ee"/>
  <path id="warmińsko-mazurskie" d="M1213.861,245.529a13.189,13.189,0,0,1,2.38-2.066,5.56,5.56,0,0,0,3.383-5.234c.067-1.831.427-3.548,2.536-4.351.546-.208.971-1.212,1.108-1.917.322-1.664.394-3.374.657-5.052a10.119,10.119,0,0,1,.709-1.9c2.836.773,4.429,4.53,8.063,2.7a10.031,10.031,0,0,1,1.635-5.8c1.217-1.843,1.6-4.265,2.216-6.469a2.039,2.039,0,0,0-2.05-2.68,19.091,19.091,0,0,0-4.464.468c-.926.191-1.737.506-2.569-.6.132-.429.328-.965.461-1.516.5-2.076.249-2.4-1.861-3.158-1.367-.489-2.669-1.159-4.164-1.82l1.18-2.212-4.139-1.562,2.88-8.721-.4-.179c.144-.13.267-.327.435-.381,3.174-1.008,3.345-1.726.919-4.123-.982-.97-2.032-1.881-1.969-3.609,1.821-.25,2.261,1.018,2.917,2.113.42.7,1.407,1.872,1.58,1.78a10.686,10.686,0,0,0,2.658-2.138c.278-.3.193-.96.221-1.459a4.14,4.14,0,0,1,2.087-3.454,7.919,7.919,0,0,0,1.713-1.212c2.189-2.393,4.679-3.924,8.1-3.922,1.154,0,2.4-.9,3.436-1.638a21.525,21.525,0,0,0,2.792-2.714c4.552-4.716,4.191-4.274,9.514-2.645a67.436,67.436,0,0,0,10.832,2.362c6.455.855,12.949,1.428,19.436,2.022,9.589.879,19.181,1.74,28.782,2.476,5.4.414,10.825.642,16.244.8a60.711,60.711,0,0,0,9.012-.278c10.458-1.267,20.879-2.867,31.349-4.015,5.775-.634,11.62-.646,17.436-.888,4.711-.2,9.425-.32,14.138-.468a12.98,12.98,0,0,1,1.8.032c2.581.281,5.17.672,7.631-1.307l.785,2.483a1.859,1.859,0,0,1-1.213,2.439,75.838,75.838,0,0,1-8.741,2.6c-2.5.539-5.695,3.042-6.279,5.468a3.579,3.579,0,0,0,1.329,3.765,44.5,44.5,0,0,0,3.889,2.815c1.64,1.092,1.9,1.789,1.2,3.681a3.74,3.74,0,0,0,1.322,4.473,8.423,8.423,0,0,1,2.657,4.165,18.729,18.729,0,0,0,3.6,5.809c2.032,2.257,1.69,4.823,1.584,7.374a3.247,3.247,0,0,1-1.332,2.229c-1.766,1.143-2.22,2.479-1.243,4.024-1.235,3.312-5.808,3.622-5.714,7.875-1.966-.754-3.7-.969-4.383,1.44-.055.193-.487.382-.753.4-2.029.1-2.469,1.39-2.259,3.326-1.652-.092-3.065.175-3.563,2a2.178,2.178,0,0,1-1,1.082c-4.68,2.758-7.462,7.546-11.639,10.826a7.628,7.628,0,0,1-3.328,1.747c-2.284.317-4.078.947-4.424,3.524-3.645-1.46-4.78-1.039-6.64,2.312-.97,1.748-1.1,1.748-3.058,1.042-1.5-.542-3.05-.938-4.579-1.394a4.993,4.993,0,0,0-4.286.6c-1.151.693-2.65.788-3.97,1.221-2.277.747-4.495,2.014-6.811,2.215-3.036.262-5.8.732-8.374,2.483a3.445,3.445,0,0,1-2.862-.08,3.133,3.133,0,0,0-3.615.434,8.9,8.9,0,0,1-5.117,2.325,2.745,2.745,0,0,0-1.574.792c-1.327,1.253-2.636,2.162-4.51.977a1.7,1.7,0,0,0-1.455.013,65.9,65.9,0,0,0-6.39,3.894,5.379,5.379,0,0,1-3.189,1.344c-2.6.07-4.841.808-6.348,3.292a14.49,14.49,0,0,1-3.254,3.066c-1.806,1.53-3.626,2.354-5.82.465a2.75,2.75,0,0,0-3.625.168,7.572,7.572,0,0,0-3.307,5.175c-.133,1.2.011,2.374-1.292,3.122-1.467.843-2.777,2.208-4.644,1.738-4.37-1.1-8.565-.187-12.744.939a8.158,8.158,0,0,1-5.349-.709,4.463,4.463,0,0,0-2.893-4.482c-.765-.341-1.165-1.5-1.825-2.421-2.122-.131-2.786,1.386-3.229,3.1s-1.235,2.95-3.658,2.662c-.3-1.663-.285-3.548-1.016-5.076-.72-1.5-2.2-2.644-3.406-4.017l1.957-2.625a44.165,44.165,0,0,0-3.026-5.208,4.453,4.453,0,0,0-2.811-1.349,18.864,18.864,0,0,0-3.956.334,4.148,4.148,0,0,1-.795-1.194c-.522-2.244-1.82-3.212-4.141-2.842a2.49,2.49,0,0,1-2.837-1.267c-.86-1.89-2.371-1.9-4.032-1.754-.794.07-1.59.122-2.55.2a8.08,8.08,0,0,1-1.355-5.3,3.753,3.753,0,0,0-1.768-4.1,3.971,3.971,0,0,1-1.675-4.216c.37-2.638.383-2.635-1.957-3.868-.261-.137-.507-.3-1.339-.806" transform="translate(-931.701 -129.659)" fill="#e1e5ee"/>
  <path id="podlaskie" d="M1882.235,171.209a3.94,3.94,0,0,0,4.057,2.588,3.059,3.059,0,0,1,2.9,1.784,4.006,4.006,0,0,0,3.987,2.172c2.568-.1,4.178,1.065,5.4,3.455a62.3,62.3,0,0,0,5.036,7.408,9.169,9.169,0,0,1,1.181,8.3c-.842,3.028-1.269,6.142,1.286,8.756a1.555,1.555,0,0,1,.471,1.07c-.312,2.584,1.048,4.582,2.124,6.727a4.387,4.387,0,0,1,.324,2.9c-1.141,4.011-.169,7.811,1.111,11.507,2.5,7.2,4.9,14.464,7.926,21.448,3.264,7.532,7.166,14.789,10.858,22.132,1.073,2.134,2.61,4.058,3.5,6.255a9.2,9.2,0,0,1,.558,4.94c-.728,3.745-.623,7.112,1.993,10.2a4.768,4.768,0,0,1,.866,4.549,24.363,24.363,0,0,0,.491,14.514,49.22,49.22,0,0,1,1.53,6.115,4.252,4.252,0,0,1-.268,2.857c-1.278,1.885-2.569,4-4.391,5.227-3.9,2.626-8.112,4.789-12.244,7.053a12.324,12.324,0,0,1-3.916,1.506c-4.831.736-7.378,4.143-9.63,7.917-1.333,2.234-2.538,4.545-3.794,6.824-.192.348-.544.739-.5,1.068.577,4.344-2.938,6.751-4.689,9.983a11.713,11.713,0,0,1-1.185,1.508,9.025,9.025,0,0,1-1.64-.726,2.305,2.305,0,0,0-2.759.005c-1.951,1.052-2.621.82-3.751-.841a11.738,11.738,0,0,0-12.93-5.146c-1.142.261-2.169.439-3.123-.337a3.744,3.744,0,0,0-3.906-.515,5.011,5.011,0,0,1-6.722-4.63c-.146-2.33-.79-4.051-2.909-5.174a3.113,3.113,0,0,1-1.4-1.518c-.966-2.7-2.931-4.683-4.612-6.892a5.7,5.7,0,0,1-1.053-3.292c.042-3.8.375-7.59.473-11.387a8.1,8.1,0,0,0-.611-3.183c-.826-2.02-1.929-2.311-3.755-1.073-1.128.765-2.153,1.682-3.528,2.771l-3.517-5.906c.227-.018.681.078.956-.1.635-.411,1.637-.935,1.661-1.452a3.268,3.268,0,0,0-1.074-2.271c-2.089-1.842-4.859-1.7-7.383.512a8.9,8.9,0,0,1-4.213,1.93,3.828,3.828,0,0,1-4.561-1.876c-.438-.66-.814-1.36-1.3-2.182,2.746-3.146.862-5.929-.535-8.707a3.686,3.686,0,0,0-.709-.211c-3.153-.156-3.447-.713-1.748-3.453,1.043-1.682.719-3.222-.448-4.973l-3.046.823c-1.586-2.886-3.128-6.5-7.461-3.515-2.224-1.4-2.91-3.5-3.386-5.657-.409-1.86-.532-3.8-2.014-5.234a1.053,1.053,0,0,1-.271-.529c-.391-2.006-.765-4.015-1.144-6.029,3.4.323,5-.286,5.118-1.94.092-1.262-.87-1.948-3.6-2.47.886-2.027.552-3.616-1.152-5.277-1.1-1.069-1.332-3.023-1.951-4.575,1.935-.843,3.587-1.934,5.371-2.228,1.587-.262,3.332.3,4.982.623a10.093,10.093,0,0,1,1.9.9c1.952.853,3.2.463,4.272-1.356.355-.6.472-1.445.967-1.833a3.448,3.448,0,0,1,2.325-.89c3.317.642,3.3.722,4.446-2.15.157-.1.317-.3.486-.306,5.71-.311,8.249-5.136,11.907-8.36,1.642-1.448,3.256-2.929,4.872-4.407,1.086-.993,2.151-2.009,3.1-2.9,1.085-.075,2.446.2,3.222-.356.486-.345.091-1.929.091-3.162,1.27-.27,3.19-.152,2.955-2.529,3.261.866,3.34.777,4.205-2.1a5.072,5.072,0,0,1,1.337-1.874,17.106,17.106,0,0,1,2.082-1.717c1.769-1.311,2.794-2.859,1.639-4.993,4.12-4.03,4.383-8.05,1.078-12.653-1.62-2.256-3.5-4.334-4.021-7.3-.2-1.109-1.46-2.083-2.358-3-.918-.938-1.373-1.753-.794-3.156.881-2.136.141-3.731-1.875-5.035-1.257-.813-2.489-1.672-3.681-2.579a2.316,2.316,0,0,1-.545-3.453c1.273-1.84,2.727-3.468,5.288-3.433a4.757,4.757,0,0,0,2.306-.5c1.749-.982,3.38-1.944,5.551-2.015,1.9-.062,3.141-2.345,2.7-4.226-.247-1.064-.583-2.108-.877-3.152,1.634-2.257,4.243-2.421,6.865-.512.693.5,1.543.788,2.282,1.237.828.5,1.914.9,2.354,1.659a3.808,3.808,0,0,0,4.577,2.027" transform="translate(-1384.067 -126.623)" fill="#e1e5ee"/>
  <path id="dolnoślaskie" d="M289.067,1238.737a16.278,16.278,0,0,1-2.252,2.518c-1.8,1.267-1.9,2.922-1.422,4.792.3,1.161.736,2.292.955,3.465.62,3.322,2.544,4.188,5.295,2.311.245-.167.468-.366.778-.612a7.826,7.826,0,0,0,2.609,1.081c.787.021,1.561-.819,2.4-1.01a4.619,4.619,0,0,1,1.807.371c-.108.5-.082.763-.2.867-3.242,2.854-3.219,2.839-1.364,6.606a9.448,9.448,0,0,1,1.36,5.149,9.142,9.142,0,0,0,.795,3.149c.339,1.128.727,2.241,1.182,3.632-2.8,1.18-5.273,2.41-8.169,1.089a4.449,4.449,0,0,0-.568-.2c-3.575-1.075-6.069.586-5.595,4.246.352,2.715-.7,4.663-1.964,6.683-1.075,1.712-2.238,3.319-1.97,5.529.2,1.655-1.156,2.437-2.354,2.7a3.774,3.774,0,0,0-3.329,4.1,3.5,3.5,0,0,0-4.373,1.978c-.654,1.315-.053,2.3,1.322,3.126a24.883,24.883,0,0,1-2.477,3.176c-1.838,1.7-1.906,1.667-.809,3.961.166.347.314.7.629,1.41-.82.1-1.423.235-2.029.25-2.269.057-3.267,1.268-2.23,3.254.875,1.677.3,2.638-.822,3.643a3.415,3.415,0,0,0-1.334,3.856c.358,1.529-.708,3.391-1.225,5.435-1.123-.329-1.951-.543-2.761-.813-2.917-.975-4.071-.4-4.923,2.466-.143.481-.146,1.1-.457,1.419a10.752,10.752,0,0,0-3.408,8.21c-3.509-.552-3.637-.438-5.12,2.255a4.543,4.543,0,0,1-1.786,1.789c-2.73,1.386-3.619,4.327-1.678,6.654,1.323,1.587,2.338,2.963,2.038,5.293-.228,1.773,1.351,3.039,2.959,3.833a7.592,7.592,0,0,1,3.751,3.336c1.032,2.079.572,3.906-1.4,5.017a8.628,8.628,0,0,0-.517-2.318,3.963,3.963,0,0,0-1.709-1.826,1.838,1.838,0,0,0-2.435,1.226c-.711,2.615-2.388,3.148-4.794,2.774a2.918,2.918,0,0,0-3.019,1.579c-.727,1.2-1.45,2.4-2.191,3.593a18.636,18.636,0,0,1-1.644,2.508c-2.088,2.382-4.545,2.6-6.783.409-2.352-2.3-4.617-4.631-5.325-8.168a10.2,10.2,0,0,0-2.839-4.457c-1.506-1.595-3.346-2.859-4.054-5.094a2.982,2.982,0,0,0-.878-1.21,9.553,9.553,0,0,1-2.793-5.491c-.548-2.563-1.457-3.373-3.52-3.366-1.167,0-2.218.092-2.838-1.115-.781-1.522-1.618-3.02-.973-4.847a8.292,8.292,0,0,1,6.293-5.4c1.163-.3,2.362-.471,3.5-.83,3.958-1.243,5.288-4.9,2.966-8.337a19.544,19.544,0,0,0-2.685-2.823c-.858-.838-1.854-1.547-2.64-2.444-1.879-2.144-4.373-2.431-6.883-2.1-1.108.145-2.094,1.22-3.177,1.9a9.317,9.317,0,0,0-2.865-.921c-1.383-.018-2.3,1-2.958,2.247-.555,1.054-1.175,2.172-2.861,1.744-.575-1.26.652-3.405-1.139-3.9-1.286-.357-2.86.32-4.474.561-.679-1.1-1.6-2.387-2.293-3.788a6.086,6.086,0,0,1-.314-2.309c-.158-2.979-2.328-4.7-5.084-3.643a7.131,7.131,0,0,1-7.8-1.223c-3.076-2.543-7.007-3.348-10.648-4.684-.848-.311-2.04.315-3.294.551a34.136,34.136,0,0,0-1.55-5.312c-.75-1.611-2.07-2.946-3.015-4.48-.837-1.359-.648-2.773-.229-4.331.985-3.664-1.353-5.988-5.115-5.314-.293.052-.71.261-.86.14-2-1.631-3.267.005-4.761,1.281-.975-.828-1.933-1.527-2.754-2.361-1.543-1.568-2.834-1.94-4.14-1.047-1.336.913-1.394,2.258-.172,4.208.158.252.35.482.636.871a6.871,6.871,0,0,0-.65,7.006c.529,1.177-.477,2.1-1.837,2.01a43.264,43.264,0,0,1-5.64-.518,3.247,3.247,0,0,1-2.242-1.617c-.221-.735.447-1.829.927-2.648.276-.471.95-.71,1.447-1.05a6.073,6.073,0,0,0,2.876-4.312c.314-1.922,1.476-3.692,2.157-5.568,1.934-5.332,4.341-10.549,4.1-16.435a5.763,5.763,0,0,1,.419-2.046c1.311-3.784,1.15-7.3-1.749-10.37a4.831,4.831,0,0,1-.568-1.06,20.986,20.986,0,0,1,3.4-2.014c1.441-.527,2.9-.835,3.191-2.663,3.35-.508,4.5-4.426,7.775-5.051a31.937,31.937,0,0,0,3.993,2.573c2.506,1.149,4.17.22,4.9-2.468a4.42,4.42,0,0,1,.464-1.392c2.039-2.894,2.052-2.884,1.653-6.2,3.824,1.542,7.728,2.387,10.118,5.969,1.215,1.822,1.449,1.962,3.313.869a8.431,8.431,0,0,0,2.468-2.1,34.037,34.037,0,0,0,3.049-4.825,7.4,7.4,0,0,1,4.179-4.038,4.989,4.989,0,0,0,3.209-4.017c1.033-4.657,3.111-8.639,7.67-10.858a4.025,4.025,0,0,0,1.261-1.253,8.244,8.244,0,0,0,.686-1.363c.995-.1,2.149.094,2.863-.379.645-.427.807-1.582,1.286-2.647a18.126,18.126,0,0,0,2.866,2.22,18,18,0,0,0,3.58,1.01,8.848,8.848,0,0,0,.084,3.118c.347.942,1.4,1.624,2.3,2.589-.034.659-.141,1.549-.114,2.434.061,1.959,1.557,2.714,3.062,3.317,1.537.617,2.345-.522,3.211-1.539,1.156-1.358,2.351-2.693,3.632-3.932s2.321-2.344,1.864-4.405a3.388,3.388,0,0,1,2.326-4.164,11.343,11.343,0,0,1,1.492,1.3,15.1,15.1,0,0,0,7.055,4.879c3.374,1.145,3.864,2.6,2.8,6.083a7.326,7.326,0,0,0-.521,2.6,3.364,3.364,0,0,0,3.481,3.054,5.427,5.427,0,0,1,4.389,2.2,16.876,16.876,0,0,1,1.736,2.079,10.63,10.63,0,0,0,6.6,4.87,2.8,2.8,0,0,1,1.31.693c1.888,2.125,3.919,2.19,6.18.375,1.326,1.16,2.545,1.354,3.965.026a3.6,3.6,0,0,1,2.734-.424c3.334.633,4.322-.031,4.387-3.242.049-2.427.3-2.706,2.72-2.852a7.738,7.738,0,0,1,2.4.04c3.272.875,6.585,1.668,9.744,2.86,2.1.792,3.234,2.876,4.769,4.823" transform="translate(-96.63 -927.759)" fill="#e1e5ee"/>
  <path id="pomorskie" d="M677.462,124.8c-6.119-3.354-12.173-4.913-18.977-1.985-1.158-.606-2.679-1.291-4.066-2.183a4.1,4.1,0,0,1-1.061-1.752c-.876-1.892-1.709-3.8-2.732-6.093,1.708-2.588,2.766-5.606-.972-8.046a5.7,5.7,0,0,1,2.7-3.62c2.535-1.882,2.466-3.632-.187-5.359-.748-.487-1.666-.714-2.414-1.2a1.569,1.569,0,0,1-.66-1.192,1.547,1.547,0,0,1,.892-1.008c1.119-.432,2.317-.656,3.44-1.077,2.7-1.012,3.245-2.275,1.884-4.837a7.256,7.256,0,0,0-2.359-2.6c-1.634-1.056-2.8-2.178-2.588-4.314.047-.484-.445-1.022-.746-1.655l-2.307.835c-.189-.371-.427-.624-.424-.876a8,8,0,0,1,.206-1.779,7.6,7.6,0,0,0-1.395-6.821,11.837,11.837,0,0,1-2.339-6.726,5.583,5.583,0,0,0-1.61-4.066,1.577,1.577,0,0,1,.346-2.754,14.63,14.63,0,0,1,4.035-1.919c2.294-.536,2.982-2.176,3.425-4.091.1-.44,0-1.285-.248-1.391-2.34-1-1.493-3.361-2.441-5.1.522-.312.923-.573,1.343-.8,1.815-.977,1.97-1.422,1.489-3.31a13.052,13.052,0,0,1-.538-3.5c.113-4.281.129-4.334-4.076-6.094l.378-3.2c5.476-1.774,9.9-5.072,14.238-8.723a42.105,42.105,0,0,1,22.741-9.459c6.225-.714,12.152-2.565,18.178-4.062,4.277-1.062,8.529-2.247,12.844-3.119a14.688,14.688,0,0,1,5.363.087,12.357,12.357,0,0,0,6.809-.3c3.9-1.5,7.233-.628,10.141,2.341a17.026,17.026,0,0,0,3.093,2.375c4.062,2.568,8.141,5.112,12.254,7.6,2.592,1.566,4.212,3.981,5.808,6.41a2.3,2.3,0,0,1-.05,3.037,15.92,15.92,0,0,1-3.5-4.732,6.374,6.374,0,0,0-2.531-2.765,76.334,76.334,0,0,1-11.461-7.6,11.246,11.246,0,0,0-3.664-1.931c-1.5-.431-2.267.345-2.356,1.88a6.275,6.275,0,0,0,4.022,6.511c-.449,2.738.744,5.072,2.353,7.295a15.169,15.169,0,0,1,2.574,8.483,33.324,33.324,0,0,0,1.194,7.1,6.078,6.078,0,0,0,2.127,3.12,52.4,52.4,0,0,0,13.413,6.579,5.188,5.188,0,0,0,1.784.25c4.314-.081,8.63-.139,12.94-.326,2.3-.1,4.588-.569,6.89-.654a27.239,27.239,0,0,0,12.213-3.855c2.857-1.573,5.7-3.177,8.677-4.565-1.337,2.226-3.489,3.4-5.645,4.558a10.258,10.258,0,0,0-2.643,1.389c-2.946,3.088-6.816,3.526-10.7,4.042a5.287,5.287,0,0,0-2.3.609c-.646.457-1.444,1.347-1.407,2a31.624,31.624,0,0,0,1.024,7.392c.462,1.52,1.9,2.744,2.893,4.1-2.528,1.253-2.515,1.36-2.775,4.28a14.9,14.9,0,0,1-.991,3.344,7.319,7.319,0,0,1-.616,1.031c-1.437,2.633-.828,3.949,2.318,5.022-.564,2.843-.544,2.761,2.669,3.552a18.429,18.429,0,0,1,3.506,1.755,1.537,1.537,0,0,1-.1.758c-.629,1.169-.795,2.317.178,3.34,1.024,1.076,2.278.968,3.635.64,1.5-.363,3.062-.495,5.254-.827l-4.891,13c-.6-.346-1.35-.731-2.05-1.187-.755-.491-1.417-1.147-2.209-1.557-1.887-.977-3.4-.2-3.714,1.907-.293,1.98-.463,3.979-.709,6.169-2.892,1.181-3.763,3.687-3.949,6.651a3.409,3.409,0,0,1-.829,2.161c-4.126,3.723-8.679,6.265-14.557,4.831-1.054-.257-2.191-.154-3.269-.335a14.832,14.832,0,0,1-3.46-.841c-1.6-.7-2.013-2.032-.895-3.381s1.151-2.453.116-3.734c-1.014-1.255-2.164-1.01-3.517-.533-2.912,1.028-5.885,1.881-9.136,2.9.183.063-.1.053-.167-.07-1.346-2.675-3.484-3.007-6.3-2.79-2.523.195-5.119-.563-7.583-.888-.365-1.062-.42-2.215-1.018-2.713a5.189,5.189,0,0,0-3.007-1.058,9.771,9.771,0,0,1-6.156-1.969c-1.582-1.239-3.3-.539-4.051,1.375-.28.711-.483,1.452-.688,2.078-1.8.307-2.555-.948-3.645-1.574a12.779,12.779,0,0,0-4.3-1.856c-2.115-.3-2.916,1.023-2.149,3,.388,1,.83,1.977,1.449,3.441-1.537.21-2.656.425-3.785.493-.582.035-1.179-.282-1.77-.285-2.346-.013-3.35,1.857-2.237,3.937.625,1.167,2.344,1.782,1.84,3.563-1.955,1.247-5.214-2.14-6.4,2.088-2.2-3.008-4.268-1.193-6.385.067l-2.342-3.7a26.039,26.039,0,0,0-3.586,2.652,3.443,3.443,0,0,0-1.057,2.594c.673,2.507-.5,4.229-1.986,6.124" transform="translate(-492.06 0.001)" fill="#e1e5ee"/>
  <path id="łódzkie" d="M1013.009,1130.024c-.639.156-1.223.267-1.786.442a2.535,2.535,0,0,1-3.319-1.191,3.708,3.708,0,0,0-3.946-2.132c-1.5.206-2.12-.984-2.317-2.249-.354-2.269-1.849-3.485-3.773-4.319-1.964-.851-2.973-.462-4.165,1.49-.156.256-.312.513-.482.76a2.641,2.641,0,0,1-.423.324c-.846-1.286-1.875-2.278-3.448-.836-.327.3-.933.3-1.415.429-2.481.64-4.963,1.275-7.959,2.044a6.325,6.325,0,0,1-2.982-4.806c-.292-2.542-1.269-2.868-4.293-2.153v4.193c-1.017-.637-1.669-1.009-2.283-1.437-1.644-1.148-3.3-2.286-4.9-3.493a4.012,4.012,0,0,0-4.233-.657c-1.015.434-2.013.572-2.79-.262a5.386,5.386,0,0,0-5.154-1.661l-1.735-5.089c.991-1.259,2.1-3.16.723-4.616-.848-.9-2.9-.662-5.019-1.044l-1.876-4.752a9.455,9.455,0,0,1,5.732-4.409c2.665-.9,2.659-.914,2.771-3.7a4.7,4.7,0,0,1,.109-.89,3.131,3.131,0,0,1,.313-.609c1.335-.726,2.381-.044,3.465.782,2.588,1.971,5.778.922,6.326-2.32a50.282,50.282,0,0,0,.237-7.744c.041-3.593-.767-7.451.29-10.708a92.571,92.571,0,0,0,3.142-10.481c.38-1.909,1.492-3.672,2.4-5.8,2.682.556,5.249.925,7.7,1.669a2.444,2.444,0,0,0,2.734-.387,76.809,76.809,0,0,0,5.646-5.788,4.126,4.126,0,0,0-.1-5.545,4.435,4.435,0,0,1-.885-3.6,17.179,17.179,0,0,0-.53-4.408c-.4-2.235-.084-2.847,2.172-3.272,2.321-.438,4.671-.729,7-1.105a4.087,4.087,0,0,0,3.537-3.238,2.94,2.94,0,0,0-.632-3.029c-1.618-1.847-1.51-3.293.194-4.944,1.447-1.4,2.874-2.656,5.275-1.736a4.008,4.008,0,0,0,5.068-2.054c.581-1.5-.244-3.114-2.279-4.353-.77-.468-1.811-.828-1.5-1.94.354-1.249.951-2.738,2.545-2.519,3.921.54,6.565-1.079,8.478-4.349.212-.362.819-.494,1.441-.844.426.63,1.006,1.131,1.122,1.724.374,1.911,1.6,2.856,3.282,3.576,2.823,1.2,5.617,2.5,8.343,3.9a9.48,9.48,0,0,1,2.684,2.265c1.843,2.138,2.271,2.249,4.889.552,1.976,2.08,3.876,1.109,5.661-.453a3.212,3.212,0,0,1,3.323-.688c2.17.63,2.617.384,3.869-1.58,1.241-1.947,1.717-2.036,3.479-.682,1.35,1.037,2.721,2.046,4.068,3.087a7.458,7.458,0,0,1,3.008,5.023c.193,1.459-.336,3.187,1.107,4.182a48.943,48.943,0,0,0,5.894,3.463,23.649,23.649,0,0,0,3.853,1.2,4.351,4.351,0,0,1-1.936,4.1c-2.577,2.076-2.438,3.172.587,4.713a2.775,2.775,0,0,1,1.639,3.083,6.416,6.416,0,0,1-1.007.813c-.983.538-1.617,1.218-1.206,2.414.439,1.277.984,2.378,2.642,2.456,1.167.056,2.316.561,3.478.581a6.416,6.416,0,0,0,3.394-.569c2.329-1.5,4.88-.773,7.313-1.051.329-.037,1.117,1.123,1.138,1.747.063,1.874,1.093,2.632,2.7,2.407,3.075-.43,5.038,1.407,7.358,3.251-2.747,1.522-2.655,3.947-2.088,6.44.35,1.538,1.116,2.854,2.918,3.013,1.532.135,1.784,1.118,1.6,2.329a10.349,10.349,0,0,1-.69,2.3c-1.142,2.809-1.714,2.981-4.535,1.913-2.777-1.052-5.461-2.377-8.667-1.753a4.787,4.787,0,0,0-3.221,7.451c.636.9,1.406,1.709,1.985,2.641,1.031,1.662,1.673,3.368.733,5.381-1.593,3.408-.035,4.681,3.627,4.589a11.113,11.113,0,0,0,1.628-.31c-.233,2.364-.819,4.267-2.579,5.7-2.908,2.36-4.72,5.221-3.8,9.117-1.459,1.24-3.952,1.338-4.019,3.457-.05,1.581.8,3.19,1.348,5.149-2.061-2.234-4.385-.444-6.6-.784-1.234-.189-1.843,1.028-1.471,2.327a5.292,5.292,0,0,0,.661,1.172c-1.415.627-2.754,1.13-4.007,1.8-1.5.8-2.72-.044-3.99-.536-3.519-1.363-5.756-.6-7.878,2.855l1.228,2.005a4.3,4.3,0,0,0-2.5,5.271c.557,2.171.793,4.864,4.222,4.252-.363,2.109-.608,3.877-.984,5.615-.332,1.534-1.431,2-2.634,1.008a25.371,25.371,0,0,1-2.848-3.081c-2.17-2.495-4.473-2.2-5.7.9a20.47,20.47,0,0,0-1.1,4.942c-.206,1.63-.336,3.176-1.85,4.237a3.874,3.874,0,0,0-1.038,1.46,8.136,8.136,0,0,1-4.673,4.134c-1.86-1.4-3.8-2.8-5.665-4.289-1.176-.937-2.258-1.181-3.506-.156a12.609,12.609,0,0,1-1.788,1.044c-.286-.308-.644-.511-.655-.731-.14-2.846-1.541-5.132-3.089-7.4a22.283,22.283,0,0,1-1.391-2.95c-.459-.947-1.015-1.824-2.29-1.35-1.429.531-2.012-.384-2.5-1.417-.211-.446-.228-.98-.411-1.443a2.747,2.747,0,0,0-3.088-1.85,2.155,2.155,0,0,0-1.979,2.263,15.941,15.941,0,0,1-.478,2.107" transform="translate(-725.674 -768.844)" fill="#e1e5ee"/>
  <path id="kujawsko-pomorskie" d="M898.979,482.409c-1.9,3.236-1.752,4,1.181,6.6,1.436,1.274,1.712,5.115.306,6.487a26.915,26.915,0,0,1-3.774,2.923c-2.427,1.641-2.529,1.951-1.62,4.649.926,2.751,1.805,5.521,2.568,8.32.206.755-.087,1.647-.206,3.189-1.426-1.2-2.318-1.932-3.18-2.692-.878-.775-1.817-1.373-2.97-.671-1.09.663-.8,1.7-.556,2.7a17.342,17.342,0,0,1,.206,1.85c-1.551,0-2.9-.072-4.243.027-.834.062-2.074.136-2.368.646a3.838,3.838,0,0,0-.061,2.769,16.167,16.167,0,0,0,1.777,3.041c-1.042.936-2.006,1.772-2.938,2.643-1.388,1.3-1.383,1.689-.246,3.245,1.215,1.662,2.124,3.465,4.207,4.479,1.1.534,1.377,2.287,1.262,3.92-.717,0-1.195.039-1.665-.007-2.344-.228-3.255.379-3.146,2.687a4.009,4.009,0,0,1-1.408,3.388c-2.623,2.563-2.364,4.671,1.036,6.946a24.556,24.556,0,0,1-2.843,2.98c-2.6,1.96-2.567,3.214.31,4.625.176.086.329.22.817.554a13.235,13.235,0,0,1-1.124,1.772,5.264,5.264,0,0,1-1.258.811c-3.218,2.012-3.258,2.192-1.041,5.511-1.143.747-2.709,1.236-3.35,2.288-2.043,3.354-4.9,4.185-8.612,4.081-2.8-.078-4.045-.356-5.565-2.955-1.576-2.695-1.576-2.695-3.55-3.893a9.08,9.08,0,0,0-1.267,2.191,2.438,2.438,0,0,1-2.52,2.04,32.367,32.367,0,0,0-4.951,1.391,20.449,20.449,0,0,1-1.806-2.149c-1.008-1.5-1.855-3.1-2.82-4.623-1.029-1.627-2.059-3.166-4.4-3.136-.686.009-1.39-.958-2.078-1.487a24.515,24.515,0,0,0-3.052-2.315,2.8,2.8,0,0,0-3.57.595c-.731.747-1.337,1.835-2.752,1.286-1.549-.6-1.556-1.854-1.629-3.2a9.86,9.86,0,0,0-.623-2.93c-.57-1.5-1.654-1.738-2.768-.611-.768.777-1.307,1.776-2.023,2.612-2.59,3.023-4.161,2.561-6.167,1.045a8.554,8.554,0,0,0-2.642-1.383c-1.657-.494-2.888-1.045-2.841-3.185a2.129,2.129,0,0,0-2.341-1.926c-3.744-.059-6.146-2.334-8.693-4.721a47.739,47.739,0,0,0-7.354-5.137c-1.268-.8-2.852.012-3.867,1.87-.431.789-.523,1.814-2.2,1.311.218-2.719-2.5-4.551-2.542-7.482a1.227,1.227,0,0,0-1.982-1.018,13.736,13.736,0,0,0-2.871,2.076c-.775.748-1.51,1.337-2.625,1.072-.958-.227-1.787-.741-1.525-1.855.627-2.663-.029-4.522-2.894-5.017-.062-1.378.716-1.375,1.582-1.393,4.551-.091,5.444-1.213,4.768-5.91a4.334,4.334,0,0,1-.172-1.487c1.08-4.587-1.846-7.234-4.779-9.833a3.643,3.643,0,0,0-1.958-.465c-.89-.08-1.81.082-2.683-.065-2.757-.462-3.631-2.481-2-4.734,1.133-1.563,2.26-3.079,2.325-5.1.032-.976.056-1.953.054-2.93,0-.492-.294-1.185-.066-1.443,1.4-1.585.879-2.982.061-4.658-.882-1.808-.1-2.855,2-3.306,3.463-.745,4.418-2.119,3.988-5.731a5.478,5.478,0,0,1-.028-.6c-.034-4.368-2.239-7.283-6.038-9.21-1.543-.783-1.892-1.912-.857-3.4,1.759-2.531,3.128-5.282,5.481-7.486,2.278-2.135,4.176-4.822,3.482-8.469-.367-1.928,1.367-2.4,2.483-3.045,1.165,1.025,2.071,2.435,3.184,2.624,1.04.176,2.3-.942,3.67-1.588.6.528,1.265,1.11,1.929,1.689,1.621,1.413,2.425,1.1,2.877-1.125.056-.277.117-.552.215-1.009a8.759,8.759,0,0,0,2.362.3,5.27,5.27,0,0,0,2.917-.993c.9-.955.421-2.269-.321-3.317-.656-.927-1.97-1.532-1.381-3.31.825.039,1.691.125,2.556.111a11.342,11.342,0,0,0,2.966-.221c1.873-.549,2.379-1.6,1.817-3.451-.284-.933-.7-1.825-1.09-2.819,1.723-.673,2.846.022,3.984.94a11.314,11.314,0,0,0,2.972,1.946c2.042.758,2.871.265,3.689-1.785.25-.628.454-1.274.775-2.183a32.648,32.648,0,0,0,4.61,2.222,29.922,29.922,0,0,0,4.914.669c.14,2.566,1.678,3.546,4.246,3.725,2.658.186,5.2,1.426,8.006.624.6-.172,1.741.766,2.331,1.452,1.905,2.214,1.831,2.06,4.417.94a64.24,64.24,0,0,1,8.262-2.625c.381-.107.951.459,1.612.807a17.5,17.5,0,0,0-1.3,1.833,3.5,3.5,0,0,0,1.248,4.739A10.074,10.074,0,0,0,853.143,453c3.577.248,7.176.185,10.766.242a2.132,2.132,0,0,0,.9-.059c2.217-1.059,4,0,5.95,1.152-.808,2.926-.382,5.465,2.258,7.411.554.409.641,1.534.818,2.356.4,1.847.677,3.721,1.085,5.566a1.882,1.882,0,0,0,2.673,1.575,6.862,6.862,0,0,1,2.384-.27,2.63,2.63,0,0,1,1.777.748,4.627,4.627,0,0,0,4.875,2.228c1.276-.206,1.715.646,2.172,1.622,1.224,2.61,1.38,2.663,4.092,2.274,3.026-.434,3.016-.428,4.637,2.352.45.772.981,1.5,1.454,2.21" transform="translate(-586.454 -335.554)" fill="#e1e5ee"/>
  <path id="podkarpackie" d="M1814.656,1660.027a3.845,3.845,0,0,1-1.207-.026c-.568-.167-1.055-.612-1.623-.773-1.165-.332-2.607-.744-3.176.648-.3.734.357,1.86.642,3.065l-1.96,1.589a7.029,7.029,0,0,0,.323,1.227c.554,1.154,5.992,5.9,7.227,6.007a14.754,14.754,0,0,0,3.8-.408c1.276-.231,2.517-.653,3.793-.887a14.531,14.531,0,0,1,2.347-.022c-.729,1.3-1.8,1.068-2.67,1.2-.967.152-2.017.477-1.884,1.5a3.1,3.1,0,0,0,1.644,1.894,5.808,5.808,0,0,0,2.657.3,31.339,31.339,0,0,1,9.215.933c3.618.945,7.39.411,11.057-.218a2.868,2.868,0,0,0,1.768-1.424,11.571,11.571,0,0,1,2.656-3.152,40.052,40.052,0,0,0,3.879-5.112c.518.359,1.073.717,1.6,1.113,2.016,1.515,2.809,1.494,4.719-.145.38-.326.766-.646,1.161-.954,1.729-1.349,1.812-1.274,2.871.8.313.612,1.141.938,1.62,1.493.546.631,1.329,1.344,1.381,2.067.229,3.19.247,3.293,3.318,3.247a2.444,2.444,0,0,1,.59.152c.217,1.016.159,2.274.748,3.018.481.608,1.737.6,3.055.988-2.258,3.057-4.441,5.992-6.6,8.945-1.061,1.451-2,3-3.137,4.386a37.79,37.79,0,0,1-3.7,3.865c-.98.9-1.94,1.645-1.982,3.175a3.971,3.971,0,0,1-.955,2.122c-6.268,7.9-10.883,16.85-16.179,25.366-1.006,1.619-2.035,3.225-3.1,4.805-.388.576-.831,1.393-1.388,1.53-2.749.677-3.26,3.031-4.286,5.118-1.011,2.056-2.381,3.933-3.532,5.924a13.491,13.491,0,0,0-1.526,3.239,3.367,3.367,0,0,0,.3,2.544c5.39,7.127,5.32,15.262,4.5,23.546a4.619,4.619,0,0,1-.582,1.368,2.391,2.391,0,0,0,.412,2.78c.832,1,1.491,2.15,2.377,3.093,2.419,2.575,4.125,5.813,7.241,7.754a3.1,3.1,0,0,1,1.25,1.586c.484,1.615.776,3.287,1.149,4.953-1.486,1.438-2.958,1.035-4.5.325a26.731,26.731,0,0,0-4.432-1.82,9.314,9.314,0,0,0-3.834-.115,3.311,3.311,0,0,1-3.329-.835c-2.057-2.406-4.813-2.667-7.649-2.805-.9-.044-1.808-.02-2.711-.066-1.857-.1-3.388-.372-4.152-2.609-.679-1.989-1.776-2.243-3.887-1.855-.689.127-1.359.371-2.051.463-1.348.177-2.507-.137-2.573-1.744-.073-1.772-1.285-2.17-2.623-2.3-1.392-.132-2.818.078-4.209-.06a16.133,16.133,0,0,1-3.776-.82,4.5,4.5,0,0,1-3.258-5.144c.268-2.07-.664-3.447-1.971-4.777-.979-1-1.89-2.063-2.9-3.032-.49-.472-1.168-1.176-1.688-1.118-2.548.285-4.345-1.3-6.391-2.275a8.673,8.673,0,0,0-.986-.319l-2.791,2.349a31.737,31.737,0,0,0-.752-3.084c-.289-.811-.569-1.974-1.185-2.255-2.315-1.057-4.566-2.337-7.412-1.525a65.354,65.354,0,0,1-9.149,1.749,17.31,17.31,0,0,1-3.978-.353,60.857,60.857,0,0,0-.543-6.295,59.052,59.052,0,0,0-1.892-6.93,3.359,3.359,0,0,0-1.361-1.433,1.882,1.882,0,0,1-.686-2.846c2.673-3.891,1.345-7.422-.857-10.88-.861-1.352-1.853-2.623-2.808-3.913-.236-.318-.518-.741-.852-.825-2.592-.652-4.38-2.646-6.617-3.831-1.384-.733-1.607-1.545-1.608-3.2,1.977-.8,4.03-1.776,6.176-2.463,2.789-.893,3.621-3.123,1.851-5.449-1.138-1.5-2.38-1.975-5.555-2.072-1.072-1.841-2.31-3.664-.4-5.877a1.987,1.987,0,0,0,.461-1.66c-.889-1.84-.1-3.468.279-5.208a4.767,4.767,0,0,0-.2-3.218c-1.416-2.241-.926-4.628-1.066-6.984-.136-2.282-.437-4.558-.492-6.84a3.4,3.4,0,0,1,.782-2.384c1.589-1.406,3.393-2.57,2.631-5.136a39.8,39.8,0,0,1,4.669-4.57c2.183-1.555,4.693-2.646,7.027-4a2.971,2.971,0,0,0,1.229-1.276c.944-2.274,3.005-3.075,4.973-4.088a26.989,26.989,0,0,0,5.1-3.108,14.665,14.665,0,0,0,2.477-3.624,16.593,16.593,0,0,1,1.482-2.581c1.142-1.24,1.954-2.394,1.613-4.264-.288-1.583,1.122-2.185,2.365-2.676a7.8,7.8,0,0,0,5.2-6.125c.194-1.077.057-2.209.184-3.3a18.78,18.78,0,0,1,.6-2.384c.883.055,1.555.131,2.226.133,2.336.006,4.676-.168,6.588-1.663,1.943-1.519,4.125-1.479,6.318-1.181,2.913.4,4.842,4.664,3.357,7.2-1.839,3.136-1.949,3.714-1.361,7.56h2.73c.963,1.091,1.832,2.2,2.828,3.175,1.325,1.3,2.788,2.34,4.839,1.649a1.988,1.988,0,0,1,1.178.025c3.024,1,6.035,2.042,8.956,3.038a24.673,24.673,0,0,0,.062,3.921c.1.575.857,1.039,1.148,1.365-.219,1.315-.429,2.583-.668,4.016" transform="translate(-1331.754 -1249.511)" fill="#e1e5ee"/>
  <path id="małopolskie" d="M1226.752,1774.5c.979-.847,1.732-1.59,2.577-2.205.867-.631,1.8-1.579,2.745-1.622,3.848-.175,7.535-1.691,11.536-.942,2.008.376,4.423.335,6.083-1.737.388-.484,1.441-.448,2.195-.623,3.351-.779,3.7-1.757,1.522-4.312-.258-.3-.478-.636-.705-.942,1.6-2.193,2.327-2.34,4.315-.9.242.176.433.5.694.562,2.74.646,5.611.747,8.16,2.212.382.22,1.281-.389,1.908-.683a2.375,2.375,0,0,1,3.19.77,11.218,11.218,0,0,1,1.1,1.422c.77,1.4,1.41,2.88,2.218,4.26s1.747,2.662,2.622,3.977c-2.849,2.256-3.1,3.853-.488,6.346a5.8,5.8,0,0,1,1.792,4.221,14.825,14.825,0,0,0,.387,2.677,7.2,7.2,0,0,0,11.132,4.177,5.377,5.377,0,0,1,3-1.065,5.566,5.566,0,0,0,5.259-2.446c1.555,1.2,3.163,2.177,4.96.858a9.709,9.709,0,0,0,1.949-2.186c.973-1.34,1.826-2.581,3.894-1.8a2.743,2.743,0,0,0,2.289-.917,2.966,2.966,0,0,1,3.4-1.154,7.028,7.028,0,0,0,5.961-1.334,12.359,12.359,0,0,1,2.6-1.46c1.4-.53,2.952-.71,4.287-1.355a29.559,29.559,0,0,0,3.823-2.635c.4,1.343-.533,1.8-1.177,2.266-1.9,1.361-2.347,2.945-1.6,5.226a16.786,16.786,0,0,1,.423,5.035c.01,1.585-.276,3.172-.261,4.757a3.916,3.916,0,0,0,.734,1.9,5.242,5.242,0,0,1,.4,5.159c-.492,1.193-.964,2.384-.188,3.745.23.4-.2,1.282-.486,1.867-1.073,2.209-.867,5.14.785,6.711a3.84,3.84,0,0,0,2.435.705,3.949,3.949,0,0,1,3.5,1.965c.835,1.3.4,2.232-1.059,2.738-1.978.683-3.926,1.45-5.9,2.132-1.563.538-1.856,1.729-1.635,3.128.213,1.343.163,2.844,2.027,3.287a8.55,8.55,0,0,1,2.233,1.26c.841.515,1.617,1.371,2.512,1.516,1.812.293,2.774,1.42,3.714,2.773,1.425,2.051,2.9,4.014,3.559,6.536a5.578,5.578,0,0,1-.556,4.285c-1.676,3.249-1.64,3.385.816,5.924.205.212.567.435.571.657.051,3.442,2.76,6.316,2.111,9.9-.07.383-.143.766-.244,1.309-4-.444-8.1-1.418-11.078,2.694-.723-.271-1.469-.5-2.173-.827-.635-.292-1.209-.717-1.838-1.025a3.678,3.678,0,0,0-3.981.43c-1.174.914-.852,2.358-.434,3.632.183.56.48,1.083.9,2.016-1,.179-1.821.334-2.642.468a2,2,0,0,0-1.933,1.955c-.05,1.522-.367,3.049-2,3.282-1.691.24-3.624.668-5.029-1.038a6.242,6.242,0,0,0-1.267-.908l-2.182.919c-.276-.2-.611-.319-.736-.552-.991-1.847-2-3.688-2.891-5.585-1.173-2.5-1.936-2.789-4.408-1.536a8.194,8.194,0,0,1-2.762,1.083,4.184,4.184,0,0,0-3.87,2.443c-3.317-.682-4.974-5.109-9.137-3.83-.135,1.035-.259,1.993-.416,3.2-1.468,0-2.849.021-4.228,0-2.586-.048-2.788.184-2.259,2.671a6.72,6.72,0,0,1,.066.91c-1.173,1.088-2.346.212-3.4-.052-4.071-1.023-5.637-.075-6.265,3.967-.153.984-.4,1.953-.621,3.023-.529.158-.988.3-1.452.433a2.112,2.112,0,0,0-1.658,2.724,22.828,22.828,0,0,1,.549,2.648c.085,1.357-.731,2.006-2.1,1.837-1.645-.2-2.56-1.433-3.616-2.51-2.41-2.456-4.416-2.521-7.1-.31a9.65,9.65,0,0,0-1.347,1.2c-1.06,1.279-2.408,1.312-3.846.973-2.509-.592-3.057-2.079-1.509-4.119.6-.8,1.379-1.475,1.922-2.307,1.19-1.824,1.158-3.479-.52-4.847a3.739,3.739,0,0,1-1.33-3.964c.225-1.477.693-3.087-.939-4.081a3.643,3.643,0,0,0-4.691.557c-.131.119-.372.117-.9.267-.825-.688-2.1-1.325-2.722-2.356-1.405-2.337-3.281-4.273-4.378-6.969a26.613,26.613,0,0,1-2.4-8.071,12.867,12.867,0,0,0-1.511-4.426,4.66,4.66,0,0,0-1.9-1.755,11.3,11.3,0,0,0-2.6-.685c.49-.891.9-1.63,1.3-2.371,1.582-2.9.641-5.1-2.57-5.893-.672-.166-1.4-.083-2.085-.215a15.214,15.214,0,0,1-2.879-.737,3.011,3.011,0,0,1-2.028-3.559c.342-2.669-.638-3.639-3.334-3.679-.875-.012-1.751.072-3,.129.13-1.879.228-3.547.372-5.21.043-.495.263-.973.323-1.468.176-1.448.1-2.935-1.16-3.845-1.082-.785-2.062.133-3.021.668a3.7,3.7,0,0,1-1.136.216c-.236-.315-.563-.549-.556-.774a15.235,15.235,0,0,1,2.451-8.464c1.771-2.54,3.895-4.833,5.83-7.261a6.919,6.919,0,0,1,3.482-2.7c.672-.2,1.59-.909,1.68-1.5.321-2.1,1.885-3.224,3.11-4.633a8.82,8.82,0,0,0,1.138-1.37c1.191-2.13.667-3.329-1.7-3.986-.469-.13-.954-.2-1.722-.354,1.682-2.265,2.722-4.556,5.561-5.649,2.7-1.039,2.833-2.476,1.466-4.853" transform="translate(-925.249 -1351.101)" fill="#e1e5ee"/>
  <path id="lubuskie" d="M144.9,831.267c-3.271-4.886-9.68-8.066-13.809-7.045a4.348,4.348,0,0,0,.03,1.615c.742,1.766.773,3.232-1.016,4.457-.483.331-.68,1.177-.866,1.827-.594,2.083-1.238,2.43-3.16,1.527a7.676,7.676,0,0,1-1.527-.946c-2.535-2.034-4.5-2.057-6.711.265-1.168,1.229-2.027,2.715-4,2.737-.231,0-.448.371-.687.549-.839.621-.648,2.077-2.142,2.281-.993.136-1.9.909-3.3,1.632.426-.973.659-1.562.938-2.128.221-.449.514-.861.747-1.3,2.467-4.706.56-8.41-4.973-9.809-3.742-.946-7.461-1.982-11.223-2.987-.608-2.583-.023-4.586,2.305-5.961a2.886,2.886,0,0,0,1.3-3.885,3.991,3.991,0,0,1,.318-3.434c1.215-2.6.812-3.642-1.542-5.287a3.687,3.687,0,0,1-1.344-1.716c-.811-2.464-1.548-4.959-2.167-7.478a6.82,6.82,0,0,1-.126-3.2c.4-1.536,1.271-2.942,1.777-4.459,1.043-3.123,1.991-6.279,2.947-9.43.465-1.531.812-3.1,1.3-4.622.482-1.5.748-3.045-.344-4.292-1.718-1.963-1.643-4.181-1.42-6.528.227-2.389.317-4.792.453-7.189.1-1.688-.875-2.553-2.361-3.03-.755-.242-1.485-.562-2.239-.808-1.493-.488-1.9-1.614-1.929-3.046a11.545,11.545,0,0,0-.317-3.265,10.893,10.893,0,0,1,.666-8.414,9.3,9.3,0,0,1,3.2-3.859,3.117,3.117,0,0,0,1.474-3.583,13.182,13.182,0,0,1,0-3.872c.384-3.887-.089-4.745-3.647-6.191l-1.434-.582,1.739-2.926c3.457,1.264,3.457,1.264,5.969.149.092.216.166.825.51,1.125,1.514,1.325,2.924,1.315,4.106-.291a79.546,79.546,0,0,0,4.737-7.314c.4-.683.161-1.731.232-2.873,2.949-.606,4.062-2.713,3.676-5.649,3.089-1.388,3.125-1.443,3.081-5.268.864,1.228,1.426,1.975,1.933,2.759,1.124,1.737,1.113,1.744,3.462.84.462,1.39,1.285,2.162,2.9,1.459,3.3-1.432,6.636-2.761,9.938-4.18a14.351,14.351,0,0,0,2.628-1.458c1.951-1.385,2.047-2.4.435-4.127-.252-.269-.719-.335-.933-.743a44.448,44.448,0,0,0,9.858-3.609c2.538-1.358,3.8-1.935,5.9.956a3.153,3.153,0,0,0,4,1.2,14.376,14.376,0,0,1,4.947-.945c2.354-.2,2.568-.628,3.092-3.061.179-.832,1.065-1.512,1.785-2.47-.105-.6-.255-1.467-.4-2.288a3.081,3.081,0,0,1,.431-.489,40.134,40.134,0,0,0,4.095-2.95,2.788,2.788,0,0,1,3.266-.693,3.661,3.661,0,0,1,1.913,3.437,11.023,11.023,0,0,1-1.125,3.391,5.616,5.616,0,0,0-.617,4.041c.522,3.156,1.048,6.314,1.4,9.491a3.419,3.419,0,0,1-.8,2.382c-1.068,1.183-2.426,2.1-3.586,3.206-.761.726-1.386,1.6-2.328,2.7l3.182,1.674a2.794,2.794,0,0,1,.155.845c-.5,4.062.012,4.8-5.376,5.547-.8.111-1.606.154-2.387.328-2.116.471-2.541,1.03-2.627,3.243a4.1,4.1,0,0,1-.131,1.482c-1.364,2.971-.427,5.676.842,8.37a5.919,5.919,0,0,1,.834,2.224c.013,1.918-.272,3.867,2.037,4.77q.471,2.766.943,5.532l-.707.189c-.218-.547-.476-1.081-.645-1.642-.526-1.744-1.692-2.536-3.022-2.012a2.289,2.289,0,0,0-1.029,3.317,11.292,11.292,0,0,0,2.13,2.845,13.573,13.573,0,0,0,2.606,2.037c1.517.938,1.775,2.337,1.639,3.913a3.279,3.279,0,0,1-.369,1.438c-2.653,4.183-2.285,8.725-2,13.39.174,2.831.889,5.706.107,8.6-.321,1.189,1.244,2.558,2.977,2.766,1.172.141,2.364.12,3.842.185-.34.845-.561,1.466-.834,2.062a4.24,4.24,0,0,0,4.351,6.174c.791-.063,1.568-.474,2.348-.467.835.007,2.17.07,2.4.544.577,1.173,1.336,2.544.43,3.95-.214.332-.57.57-.81.889-1.461,1.942-1.03,3.218,1.373,3.937,1.054.315,2.153.478,3.217.765a2.767,2.767,0,0,0,3.191-.9c1.344-1.531,2.142-1.6,3.98-.615a34.09,34.09,0,0,1,4.57,2.892,4.341,4.341,0,0,1,.315,6.37,6.322,6.322,0,0,0-2.034,5.371,3.646,3.646,0,0,1-.782,2.375c-1.725,1.9-3.618,3.649-5.522,5.529-2.576-.776-2.622-.786-2.065-3.535a1.835,1.835,0,0,0-.924-2.276c-1.66-.891-2.361-1.939-1.3-3.88.672-1.228-.079-2.377-1.457-2.136-2.7.473-4.278-1.16-6.077-2.541a4.711,4.711,0,0,0-1.76-1.1,3.207,3.207,0,0,0-2.206.366c-.836.588-.4,1.411.176,2.076.189.218.329.479.7,1.032-1.827-.013-3.195.466-3.707,2.271a2.485,2.485,0,0,1-1.278,1.2c-4.631,2.312-6.665,6.5-7.839,11.159a4.676,4.676,0,0,1-3.043,3.709,6.943,6.943,0,0,0-3.99,3.841,31.287,31.287,0,0,1-3.159,5.111,18.372,18.372,0,0,1-2.7,2.445" transform="translate(-68.514 -519.4)" fill="#e1e5ee"/>
  <path id="ślaskie" d="M1017.894,1591.426a7.948,7.948,0,0,1-1.391.86c-2.881,1.01-4.5,3.413-6.45,5.522-1.317,1.423-.591,2.756.922,3.09.489.108,1,.133,1.481.263a11.008,11.008,0,0,1,1.33.581c-.814,3.263-4.908,4.373-4.911,7.133a60.435,60.435,0,0,0-4.775,4.286c-2.133,2.385-4.129,4.9-6.079,7.441s-2.388,5.7-2.828,8.732c-.316,2.178,1.384,3.193,3.552,2.442.639-.221,1.247-.529,2.284-.977a23.179,23.179,0,0,1,.1,2.785c-.163,1.8-.532,3.576-.626,5.372-.126,2.4.708,3.055,3.038,2.649a11.4,11.4,0,0,1,1.477-.254c1.3-.052,2.024.426,2.055,1.912.087,4.163,1.554,5.649,5.7,5.988.2.016.4-.011.6.005,3.972.337,4.727,1.775,2.7,5.14-1.532,2.548-1.281,3.158,1.654,3.8,1.007.22,2.008.361,2.226,1.872-1.517.27-3.11.559-3.633,2.4-.076.267-.617.537-.964.568a2.77,2.77,0,0,0-2.411,1.984c-.85,2.116-2.708,3.174-4.5,4.263a15.842,15.842,0,0,1-4,2.024c-1.946.507-2.489,1.809-2.728,3.478-.114.794-.151,1.6-.231,2.4-.257,2.584-.631,3.018-3.327,3.276-1.642.157-3.327.9-4.962-.237-.272-.189-.932.139-1.4.28-.834.254-1.656.547-2.49.826-.371-2.134-.812-4-1-5.9-.305-3.092-1.184-3.971-4.339-3.969-.3,0-.593-.033-1.015-.058-1.118-1.253-1.147-2.816-1.243-4.424a7.576,7.576,0,0,0-.831-3.07,15.942,15.942,0,0,1-2.343-6.736c-.138-2.4-.909-2.981-3.466-3.172-1.916-.143-3.406-.473-4.795-2.337-1.087-1.459-3.005-2.426-4-4.222-1.051-1.9-1.767-3.812-1.212-6.024.528-2.1-.246-4.216.558-6.463.841-2.35-1.8-4.112-4.229-3.162a11.3,11.3,0,0,0-1.684,1.057c-1.1-1.866-2.423-3.371-4.764-3.613-2.073-.214-4.161-.986-6.032,1.185-.8-1.062-1.4-1.963-2.109-2.756a39.129,39.129,0,0,0-2.963-2.983,3.311,3.311,0,0,0-3.854-.648c-2.351.976-3.019.487-3.14-2.163a5.478,5.478,0,0,0-1.422-3.823,3.427,3.427,0,0,1-.729-1.545c-.339-1.442-.525-2.922-.889-4.357-.5-1.971.009-2.413,2.214-2.487,2.18-.073,4.349-.494,6.52-.784.393-.052.969-.092,1.124-.345,1.269-2.06,3.709-2.581,5.3-4.109a3.249,3.249,0,0,1,3.418-1.025c2.138.478,3.788-1.018,2.96-2.97-1.151-2.716-.133-5.856-2.011-8.4-.373-.5-.044-1.829.364-2.546a2.924,2.924,0,0,0-.682-4.123c2.633-1.926,1.316-4.8,1.8-7.732.828.721,1.251,1.058,1.638,1.433a1.878,1.878,0,0,0,2.695.263,2.126,2.126,0,0,0,.559-2.948c-.26-.528-.8-.915-1.066-1.443-.419-.846-1.166-1.889-.956-2.609.389-1.331,1.819-.889,2.882-.818,1.4.094,2.792.409,4.185.4,3.006-.017,3.747-.928,3.436-3.882A7.945,7.945,0,0,0,964,1561.79a4.731,4.731,0,0,1-.92-7.462c.07-.072.144-.14.213-.213,2.748-2.849,2.719-3.183-.43-5.787a6.807,6.807,0,0,1-.742-.981,13.845,13.845,0,0,1,2.144-2.653c2.073-1.581,3.178-3.842,4.5-5.938a4.744,4.744,0,0,0,.8-2.817c-.343-2.972,1.231-5.4,1.986-8.053.424-1.491.92-2.961,1.206-4.536,2.154-2.6,5.562-2.021,8.44-3,2.662,2.149,3,2.035,5.33-1.8,2.653.109,3.843.765,4.463,3.024.687,2.5,1.754,4.185,4.716,3.989.592-.039,1.352.718,1.848,1.274,2.115,2.369,3.771,2.837,6.539,1.42a4.357,4.357,0,0,0,1.527-2.039,9.577,9.577,0,0,0,.492-2.2c1.844-.43,1.91.727,2.246,1.823a4.014,4.014,0,0,0,4.572,3.089c.835,1.377,1.74,2.671,2.438,4.069a29.4,29.4,0,0,1,2.2,5.207c.885,3.212,1.6,3.56,4.509,1.708a5.762,5.762,0,0,1,.781-.443,3.219,3.219,0,0,1,.673-.121c1.927,1.458,3.944,2.9,5.861,4.47a2.124,2.124,0,0,0,2.7.279c2.556-1.365,2.575-1.315,4.53.579.57.552,1.179,1.065,2.078,1.873a2.743,2.743,0,0,0-3.013,2.646,3.233,3.233,0,0,1-2.312,2.554c-1.723.691-2.332,2.155-2.664,3.755-.45,2.168.885,3.444,3.1,3.13,1.478-.21,2.961-.439,4.449-.5a9.626,9.626,0,0,1,2.307.488c-2.417,4.254-2.395,4.352,1.353,5.81-.73.9-1.385,1.748-2.086,2.557-1.046,1.207-2.206,2.323-3.167,3.592-1.154,1.523-.947,2.5.78,3.38a31.886,31.886,0,0,0,4.073,1.43l2.931,4.2c-.108.157-.192.426-.328.456-1.96.424-3.887.587-5.5,2.256-.753.778-2.708.763-4.028.55-3.853-.621-7.538.467-11.275.872-1.265.137-2.445,1.233-3.619,1.963-.568.354-.973.982-1.553,1.3-2.487,1.372-2.53,1.518-.255,4.438" transform="translate(-716.608 -1165.565)" fill="#e1e5ee"/>
  <path id="świętokrzyskie" d="M1392.663,1440.945l-1.349-3.007a8.708,8.708,0,0,0,2.359-.039,2.9,2.9,0,0,1,3.013.516,2.692,2.692,0,0,0,2.415-.157c.353-.208.259-1.415.129-2.128a8.288,8.288,0,0,0-.856-1.916c-1.012-2.131-.786-2.8,1.487-3.49,1.605-.487,3.283-.734,4.664-1.031l4.674,9.494c1.778-.255,3.475-.992,4.762-.546,1.335.463,2.273,2.071,3.037,2.831.245,1.7-.027,3.484.722,4.2,1.395,1.327,2.61-.667,4.092-1.1,1.567,1.634,3.559,1.466,5.545.878a5.436,5.436,0,0,1,4.625.4,4.731,4.731,0,0,0,1.689.589c2.684.409,3.785-.531,3.986-3.3a6.3,6.3,0,0,1,.258-1.156c.021-.079.137-.133.209-.2,1.934.623,2.015.766,1.244,2.187-1.265,2.33-1.2,2.419.584,4.31a3.918,3.918,0,0,1,.842,2.027c.344,2.277.9,2.827,3.112,2.492a18.377,18.377,0,0,1,9.455.724,3.7,3.7,0,0,1,2.518,1.885c1.219,2.759,3.522,2.89,6.231,2.441l1.22-3.653a20.352,20.352,0,0,0,3.718-.267,23.448,23.448,0,0,0,3.8-1.771c.281.19,1.067.741,1.875,1.258a16,16,0,0,0,2.557,1.529c1.859.743,2.886.386,4.168-1.2.3-.367.61-.72,1.065-1.257.239.432.5.68.456.857a6.411,6.411,0,0,0,1.323,5.869c.532.671.394,2.081.192,3.08-.331,1.64-.512,3.224.472,4.646,2.583,3.731,2.171,8.02,2.335,12.19a27.794,27.794,0,0,1-.332,4.488,6.313,6.313,0,0,1-3.593,5.217c-.539.264-1.141.4-1.666.691-1.587.866-2.8,1.961-2.4,4.045a2.06,2.06,0,0,1-.1,1.443c-3.033,3.919-4.533,9.232-10.262,10.7-2.2.564-3.748,2.294-5.258,4.2a16.218,16.218,0,0,1-6.114,4.155,16.93,16.93,0,0,0-5.909,4.492c-.722.82-1.611,1.492-2.414,2.242a14.083,14.083,0,0,1-6.505,3.52,11.4,11.4,0,0,0-3.76,1.788,6.467,6.467,0,0,1-4.8,1.279c-2.2-.317-4.291-.39-5.3,2.28-3.036-1.309-4.7,0-6.087,2.367-1.287,2.194-1.8,2.193-4.317.985-1.2-.575-2.265-.689-3.123.649a2.859,2.859,0,0,1-2.908,1.169,6.878,6.878,0,0,0-4.508,1.34,5.628,5.628,0,0,1-8.823-3.465c-.395-1.747-.1-3.721-.773-5.314-.662-1.565-2.156-2.777-3.2-4.038.171-.443.187-.694.318-.79,2.6-1.9,2.605-2.325.762-4.977-1.136-1.635-2.036-3.435-3.039-5.162-.05-.086-.067-.19-.109-.281-1.939-4.2-3.857-5-8.522-3.448-1.647-1.174-3.392-2.249-5.722-1.65-.57.147-1.52-.489-2.048-1.014a3.568,3.568,0,0,0-3.9-.744c-2.676.8-4.864.452-7.733-1.417.979-1.23,1.926-2.457,2.915-3.65,1.078-1.3,2.258-2.518,3.26-3.871a2.394,2.394,0,0,0,.412-1.876c-.33-.964-1.194-.8-2.03-.484a9.587,9.587,0,0,1-2.07.146l3.254-3.611c-3.062-3.375-6.978-1.758-10.72-1.666-.43-1.942.132-3.217,1.791-4.034a4.6,4.6,0,0,0,2.95-4.2,8.037,8.037,0,0,0,2.074-.587,1.982,1.982,0,0,0,.219-3.285c-1.28-1.1-2.574-2.187-3.962-3.365a10.218,10.218,0,0,1,1.617-2.611c2.32-1.946,2.607-4.578,2.865-7.289a9.871,9.871,0,0,1,.6-2.621c.9-2.309,2.076-2.488,3.667-.663.855.98,1.748,1.929,2.643,2.874a3.033,3.033,0,0,0,3.323.788c1.316-.419,1.753-1.477,1.911-2.784a21.112,21.112,0,0,1,.782-3.794c.718-2.283.531-2.71-1.86-3.361-.191-.052-.4-.025-.6-.076a6.918,6.918,0,0,1-.768-.332,10.168,10.168,0,0,1-.925-2.932,4.1,4.1,0,0,1,1.01-2.67c1.92-2.012,1.993-1.943.834-4.363a4.412,4.412,0,0,1,5.673-1c2.045,1.014,4.147,1.583,6.105-.387.345-.347,1.133-.233,1.7-.384.837-.221,1.661-.488,2.843-.84" transform="translate(-1042.358 -1097.363)" fill="#e1e5ee"/>
  <path id="opolskie" d="M650.421,1549.028l1.543-2.8,2.773.764a6.824,6.824,0,0,0,1.855-4.388,4.3,4.3,0,0,1,.713-2.2,9.766,9.766,0,0,0,2.893-5.159c.063-.42.993-.879,1.587-1a4.1,4.1,0,0,1,1.728.384c3.2.936,3.821.643,4.786-2.506.541-1.765,1.7-3.475.535-5.4,1.937-2.034,4.58-3.769,2.011-6.789,1.457-.575,3.031-.788,3.991-1.67,1.516-1.393-.446-2.684-.653-3.8,1.084-1.4,2.1-2.611,3-3.9,1.015-1.464,1.549-2.966-.912-4.13.842-.536,1.391-1.151,1.721-1.05,1.83.559,2.753-.334,3.075-1.9a3.056,3.056,0,0,1,2.28-2.427c2.166-.841,3.74-2.184,3.479-4.959a5.44,5.44,0,0,1,1.135-3.015c1.7-2.639,3.282-5.172,2.791-8.618-.3-2.132.781-2.828,2.981-2.651a2.558,2.558,0,0,1,.888.134c3.364,1.632,6.439.347,9.518-.915.278-.114.539-.276.822-.371,1.657-.551,2.634.169,2.3,1.849-.187.952-.9,1.8-1.108,2.75a4.223,4.223,0,0,0,.069,2.777,2.64,2.64,0,0,0,2.415.531c2.7-.937,5.5-.943,8.268-1.2a4.632,4.632,0,0,0,3.282-1.855,4.57,4.57,0,0,1,2.311-1.606,39.863,39.863,0,0,1,6.256-.618,2.744,2.744,0,0,1,1.8.92,3.814,3.814,0,0,0,4.65,1.029,2.855,2.855,0,0,1,3.071.477c1.945,1.42,3.852,2.9,5.842,4.25.674.459,1.9,1.082,2.264.811a5.024,5.024,0,0,0,1.306-2.479,5.848,5.848,0,0,0-.1-1.9,1.492,1.492,0,0,1,1.691,1.722c-.08,2.044,1.016,3.3,2.45,4.551,2.43,2.123,2.215,2.631,1.1,5.636-.98,2.636-2.724,5.179-1.924,8.3a2.749,2.749,0,0,1-.569,1.941c-1.44,2.022-2.976,3.976-4.5,5.935-.368.472-.871.838-1.255,1.3-1.782,2.141-1.641,3.144.638,4.91a10.67,10.67,0,0,1,.884.806,3.426,3.426,0,0,1,.282.648,27.271,27.271,0,0,1-2.46,2.58,2.847,2.847,0,0,0-1.075,3.441,3.8,3.8,0,0,1,.3,1.463c-.17,2.118.921,3.247,2.7,4.208,2.717,1.469,4.026,3.788,3.245,7.4-1.058,0-2.118.054-3.171-.014-1.3-.084-2.6-.286-3.9-.405a2.882,2.882,0,0,0-3.089,1.36c-.806,1.371-.272,2.526.478,3.628.594.872,1.32,1.655,1.988,2.477l-.466.568a11.477,11.477,0,0,1-1.42-.869c-1.771-1.459-3.134-1.043-3.691,1.166a2.077,2.077,0,0,0-.139.886c.472,2.067.351,3.934-1.328,5.523a1.707,1.707,0,0,0,.178,1.624c.948.992.794,1.891.268,2.989a4.41,4.41,0,0,0,.211,4.26c1.331,2.57,1.068,5.522,1.7,8.626a9.635,9.635,0,0,0-2.483-.557,7.53,7.53,0,0,0-2.732.75c-1.208.632-2.291,1.5-3.436,2.255-.334.22-.851.307-1.025.6-1.96,3.372-5.271,2.808-8.28,2.712-3.059-.1-4.57,1.375-3.823,4.28.224.87.736,1.673.9,2.548.225,1.2.216,2.288-1.225,3-2.477,1.225-2.554,1.983-.637,3.912.331.333.925.4,1.357.647-1.089,1.511-1.783,1.075-2.489.684-2.651-1.468-2.646-1.461-4.166,1.3a11.328,11.328,0,0,1-.788,1.121,42.98,42.98,0,0,1-4.563-.513,3.165,3.165,0,0,1-1.5-1.289c-.531-.708-.728-1.776-1.385-2.261a7.515,7.515,0,0,1-3.4-6c-.141-2.185-2.378-2.846-5.405-1.95-1.241-1.381-3.1-2.469-2.518-5.059,1.694-.286,3.373-.487,5.012-.863,3.76-.862,5.281-3.192,4.82-6.981a27.751,27.751,0,0,1,.078-3.555c.016-1.75-.7-2.87-2.034-3.314a2.469,2.469,0,0,0-3.062,1.319c-2.53,4.433-6.431,3.634-10.358,2.9-1.11-.209-2.227-.383-3.745-.643-.462-.49-1.159-1.732-2.209-2.224-1.671-.784-1.886,1.168-2.789,2.741-.839-3.785-1.691-6.91-6.119-5.832a12.1,12.1,0,0,1-1.333-2.041c-.816-2.069-2.266-3.026-4.3-4.079-2.478-1.283-4.967-2.413-7.52-3.526-1.849-.806-3.281-2.568-5.147-4.11" transform="translate(-499.232 -1136.338)" fill="#e1e5ee"/>
  <path id="wielkopolskie" d="M17214.645,3086.7c.494-1.844,1.311-3.631,1.371-5.445.078-2.239-1.908-2.768-3.68-3.028-1-2.738-2.047-5.237-2.213-8.139-.111-1.965-1.514-3.857-2.473-6.091.494-.447,1.133-1.041,1.793-1.609,1.5-1.293,1.721-2.087.871-3.263a2.952,2.952,0,0,0-3.947-.833,15.987,15.987,0,0,0-1.285.955c-2.082-2.161-3.975-1.571-5.77.9a16.582,16.582,0,0,1-1.41-2.334c-.316-.837-.32-1.8-.664-2.612-.871-2.052-.916-3.6,1.129-5.245,2.529-2.035,2.342-3.358.307-5.861-1.973-2.443-4.246-4.178-7.57-4.339a11.891,11.891,0,0,1-3.389-1.158,11.289,11.289,0,0,0-7.357-.594c-2.121.612-2.6,1.2-2.572,3.388.008.85,0,1.705,0,2.837-2.734-.273-5.316-1.77-7.332.885-1.445-1.02-2.73-1.371-4.131-.035-.82.781-1.8.278-2.721-.36-1.037-.725-2.3-1.128-3.371-1.813a25.57,25.57,0,0,1-3.8-2.816c-1.23-1.163-2.189-2.612-3.357-3.853a6.43,6.43,0,0,0-4.707-2.317c-1.986-.043-2.551-1.076-2.086-3.02a22,22,0,0,0,.58-2.911c.27-2.85-.373-3.978-2.9-5.232a8.531,8.531,0,0,0-1.947-.79c-3.254-.69-4.859-3.427-6.877-5.593-.512-.555-.473-1.679-.564-2.555-.264-2.438-1.07-4.46-3.557-5.479a13.98,13.98,0,0,1-1.979-1.371c-3.311-2.135-4.807-2-7.9.833-1.562-.386-3.271-.811-5.029-1.245.078-.516.023-.937.184-1.054,2.6-1.909,1.449-4.308.863-6.6a2.1,2.1,0,0,0-2.361-1.479,16.965,16.965,0,0,0-3.266.443,3.216,3.216,0,0,1-3.5-1.124c-.91-1.145-.516-2.226.156-3.332a3.877,3.877,0,0,0,.564-1.675c.074-1.484-.877-2.325-2.461-2.126-1.436.178-2.8.3-3.8-.677-.186-3.618-.164-7.1-.59-10.521-.445-3.558-.615-6.968,1.264-10.213a7.57,7.57,0,0,0,.992-2.824c.256-2.13.227-4.208-1.99-5.541-.789-.472-1.854-1.009-1.312-2.323,1.057.987,2.244.483,2.275-.544.082-2.555.156-5.224-1.285-7.536-.289-.469-.924-.72-.984-1.258-.611-1.97-1.119-3.979-1.873-5.892-.83-2.108-1.428-4.122-.5-6.395a14.155,14.155,0,0,0,.451-3.4,14.93,14.93,0,0,1,1.861-.555c.889-.147,1.8-.135,2.7-.273,4.377-.681,6.377-3.21,5.682-7.514-.16-.989-1.174-1.844-1.955-3,1.02-.941,2.316-2.278,3.756-3.423a4.259,4.259,0,0,0,1.52-4.542c-.508-2.95-.9-5.927-1.219-8.907a16.693,16.693,0,0,1,.3-3.263c1.006.408,1.58.573,2.092.855a11.979,11.979,0,0,0,10.209.59c2.893-1.032,5.961-1.748,8.363-3.935a6.317,6.317,0,0,0,2.373-4.343,9.167,9.167,0,0,1,.82-3.484,4,4,0,0,1,2.309-2.07c2.85-.39,5.219-1.271,6.334-4.356a19.023,19.023,0,0,0,1.775.911c1.713.646,3.5-.347,3.3-2.152-.256-2.3.824-3.219,2.656-4.052,2.715-1.236,2.924-3.367.334-4.876a45.115,45.115,0,0,0-7.172-3.02,7.17,7.17,0,0,1-4.65-7.879c2.043.161,4.1.391,6.16.469,5.684.208,8.9-2.959,10.426-8.447.941-3.388,2.26-5.02,4.842-5.341a2.249,2.249,0,0,1,2.572,1.041c.668,1.215,1.332,2.438,1.887,3.709.785,1.779,1,4.039,3.732,3.974,2.086,2.4,4.018,1.775,6.586.365,3.154-1.731,11.414.581,14.121,3.176-1.787,2.56-3.605,5.054-5.3,7.623-1.637,2.473-1.064,4.391,1.592,5.844a10.249,10.249,0,0,1,5.193,10.265,2.729,2.729,0,0,1-2.379,2.365c-1.592.351-3.738.039-3.877,2.442a14.129,14.129,0,0,0,.74,4.59,6.923,6.923,0,0,0-.59,4.451c.469,2.482-.594,4.716-2.207,6.634a3.517,3.517,0,0,0-.963,3.558c.762,2.551,1.215,3.054,3.891,3.358a4.834,4.834,0,0,0,1.488.156c2.725-.62,4.156,1.232,5.311,3.05,1.072,1.688,2.465,3.436,1.545,5.822-.287.75.135,1.77.217,2.664.246,2.7-.5,3.579-3.146,3.237a2.859,2.859,0,0,0-3.133,1.141c-1,1.436-.818,2.3.734,3.141.686.377,1.422.668,2.209,1.028-.105.694-.187,1.276-.283,1.857-.256,1.51-.057,2.911,1.52,3.544,1.527.612,3.137.824,4.516-.464.707-.664,1.389-1.358,1.992-1.952a40.451,40.451,0,0,1,2.484,3.592,20.8,20.8,0,0,1,.934,2.842c.383,1.032.725,2.2,2.131,2.2a3.025,3.025,0,0,0,2.867-1.827c1.145-2.273,1.158-2.2,3.215-1.111a25.762,25.762,0,0,1,7.389,5.592,9.176,9.176,0,0,0,6.795,3.436,11.444,11.444,0,0,1,1.826.347c.125.434.381.833.316,1.163-.316,1.588.434,2.386,1.813,2.985,1.922.833,3.779,1.809,5.658,2.746,2.334,1.167,4.074.8,6.152-1.415.854-.915,1.635-1.9,2.941-3.423.217,1.74.447,2.777.459,3.818a3.549,3.549,0,0,0,2.486,3.414,3.1,3.1,0,0,0,3.793-.8c1.617-1.657,3.031-1.605,4.547.161,1.332,1.553,2.438,3.141,4.836,3.089.561-.013,1.26.92,1.688,1.557,1.111,1.67,2.078,3.436,3.168,5.12a12.09,12.09,0,0,0,1.861,2.343c1.41,1.293,1.9,1.2,3.666.03a4.816,4.816,0,0,1,2.373-.98c2.352,0,3.887-.824,4.117-4.061,2.295,2.764,3.063,6.074,6.322,6.729-.9,3.822-.855,4.065,1.816,5.7,1.055.642,1.889,1.354,1.314,2.62s-1.648,1.566-3.027,1.189c-1.006-.273-2.277-.685-3.1-.308a14.054,14.054,0,0,0-4.369,3.067c-1.527,1.648-1.324,4.178.035,6.126,1.084,1.562.881,2.759-.756,3.558a5.354,5.354,0,0,1-2.316.512,24.811,24.811,0,0,0-6.416.993c-2.027.512-2.7,1.237-2.652,3.349.023.889.33,1.766.443,2.659a9.557,9.557,0,0,1,.217,3.193,4.262,4.262,0,0,0,.881,3.9c1.635,2.152,1.566,2.946-.1,5.05-.686.864-1.445,1.675-2.184,2.495-1.621,1.8-3.3,2.985-5.982,1.822-1.609-.694-3.518-.686-5.289-1.015a2.041,2.041,0,0,0-2.437,1.284c-1.279,2.824-2.955,5.54-2.98,8.76a7.9,7.9,0,0,1-1.432,4.5,8.78,8.78,0,0,0-1.371,5.44c.053,1.492-.221,2.994-.252,4.49a10.546,10.546,0,0,0,.238,3.254,15.746,15.746,0,0,1,.053,7.454c-.459,2.681-2.273,3.38-4.516,1.853a8.435,8.435,0,0,0-.98-.694c-2.717-1.328-4.734-.117-4.859,2.89-.018.49-.053.98-.084,1.605-2.771.946-5.488,1.9-7.543,4.156a2.382,2.382,0,0,0-.777,2.634c.611,1.8,1.2,3.614,1.844,5.406.391,1.106,1.314,1.067,2.256.911s1.887-.3,3.566-.577a17.793,17.793,0,0,1-1.262,2.8,2.482,2.482,0,0,0-.092,3.046,26.038,26.038,0,0,1,1.314,3.133c-1.236.347-2.07.655-2.928.8-1.537.252-2.842.625-3.615,2.26a2.968,2.968,0,0,1-2.2,1.276,27.841,27.841,0,0,0-8.547,1.284.323.323,0,0,1-.1.016A3.374,3.374,0,0,1,17214.645,3086.7Zm-116.854-132.156c.85-.547,1.262-.178,1.371.69.133,1.085.211,2.175,1.656,2.271-.311.019-.58.032-.818.032C17098.539,2957.538,17098.328,2957.047,17097.791,2954.545Zm3.059,2.963-.031,0,.035,0s0,0,0,.006S17100.85,2957.509,17100.85,2957.508Z" transform="translate(-17006.578 -2735.963)" fill="#e1e5ee" stroke="rgba(0,0,0,0)" stroke-width="1"/>
</svg>
