<svg xmlns="http://www.w3.org/2000/svg" width="246.24" height="87.36" viewBox="0 0 246.24 87.36">
  <path id="_404" data-name="404" d="M-41.82-16.08H-54.3V0H-77.46V-16.08h-44.4V-31.56L-84.18-84h24.6l-34.2,49.08h17.04V-49.2H-54.3v14.28h12.48ZM.06,1.68a35.934,35.934,0,0,1-19.2-5.16A34.709,34.709,0,0,1-32.28-18.54q-4.74-9.9-4.74-23.46t4.74-23.46A34.709,34.709,0,0,1-19.14-80.52,35.934,35.934,0,0,1,.06-85.68a35.711,35.711,0,0,1,19.08,5.16A34.709,34.709,0,0,1,32.28-65.46q4.74,9.9,4.74,23.46T32.28-18.54A34.709,34.709,0,0,1,19.14-3.48,35.711,35.711,0,0,1,.06,1.68Zm0-19.44q6,0,9.54-5.82T13.14-42q0-12.6-3.54-18.42T.06-66.24q-6.12,0-9.66,5.82T-13.14-42q0,12.6,3.54,18.42T.06-17.76Zm124.32,1.68H111.9V0H88.74V-16.08H44.34V-31.56L82.02-84h24.6L72.42-34.92H89.46V-49.2H111.9v14.28h12.48Z" transform="translate(121.86 85.68)" fill="#363940"/>
</svg>
