<svg xmlns="http://www.w3.org/2000/svg" width="32" height="34.462" viewBox="0 0 32 34.462">
  <g id="Group_1275" data-name="Group 1275" transform="translate(-6 -4)">
    <path id="Path_12443" data-name="Path 12443" d="M37.871,14.8a.615.615,0,0,0-.628-.222,9.747,9.747,0,0,1-5.57-.739c-.545-.2-1.095-.435-1.649-.628-2.418.276-5.2,1.409-6.506,3.607a.618.618,0,0,1-1.12-.345c.066-.516.52-.9.818-1.3a8.966,8.966,0,0,1,3.921-2.548,14.094,14.094,0,0,1,4.185-.739.62.62,0,0,0,.591-.548l.339-2.918a.618.618,0,0,0-.185-.517.6.6,0,0,0-.529-.16l-3.484.609.3-.96a.616.616,0,0,0-.48-.788l-3-.536a.617.617,0,0,0-.72.523c-.369,2.182-1.008,2.49-1.711,2.9a17.4,17.4,0,0,0-3.958,2.893,8.829,8.829,0,0,0-2.265,3.509.615.615,0,0,1-.646.449c-1.757-.271,1.226-4.093,2.037-4.826a15.763,15.763,0,0,1,1.606-1.4,7.592,7.592,0,0,1,2.345-2.819.619.619,0,0,0,.049-.942L19.24,4.168a.59.59,0,0,0-.579-.142c-2.1.579-3.139,2.616-3.65,4.229a20.2,20.2,0,0,0-3.958-4.124.635.635,0,0,0-.542-.111l-4.062,1.1a.621.621,0,0,0-.215,1.083c1.828,1.416,4.339,3.6,5,6.223.308,1.206-.215,2.142-.819,3.219a11.747,11.747,0,0,0-1.643,5.934,19.114,19.114,0,0,1,4.444.862c.086-.675.005-2.883,1.231-2.432a.619.619,0,0,1,.265.831,3.194,3.194,0,0,0-.234,1.268,3.6,3.6,0,0,1-.031.363,3.623,3.623,0,0,0,2.216-1.564.616.616,0,0,1,.972.757c-3.011,3.849-5.38,1.135-8.814,1.188a18.57,18.57,0,0,0,4.7,10.169c.861-3.328,5.575-3.87,5.724-7.331a.63.63,0,0,1,.628-.6.617.617,0,0,1,.6.628,4.962,4.962,0,0,1-1.951,3.743,3.452,3.452,0,0,0,1.9-.529.614.614,0,0,1,.652,1.04,5.819,5.819,0,0,1-4.031.646c-1.28.973-2.37,1.9-2.493,3.539A23.637,23.637,0,0,0,18.12,37.18a5.587,5.587,0,0,0,6.832.222,7.379,7.379,0,0,1,6.536-12.373,18.621,18.621,0,0,0-.2-5.669c-1.154-.5-2.1.406-2.554,1.348a.616.616,0,0,1-1.089-.573c1.089-2.213,3.158-2.807,5.4-1.262a7.628,7.628,0,0,1,1.465,1.2.613.613,0,0,0,.985-.129l2.431-4.475a.619.619,0,0,0-.055-.671Z" transform="translate(0 0)" fill="#387abc"/>
    <path id="Path_12444" data-name="Path 12444" d="M42.65,40.093a6.154,6.154,0,1,0,5.139,6.069,6.173,6.173,0,0,0-5.139-6.069Zm-1.016,9.455a.616.616,0,0,1,0-1.231A.616.616,0,0,1,41.635,49.549Zm.615-3.078a.616.616,0,0,1-1.231,0V43.393a.615.615,0,1,1,1.231,0Z" transform="translate(-11.334 -13.845)" fill="#387abc"/>
  </g>
</svg>
