<svg id="Group_1282" data-name="Group 1282" xmlns="http://www.w3.org/2000/svg" width="32" height="28" viewBox="0 0 32 28">
  <path id="Path_12459" data-name="Path 12459" d="M266,51.527v5.607l1.983-1.444,2.356,3.236L264,63.544l-6.341-4.617,2.356-3.236L262,57.134V51.527a8,8,0,1,1,4,0ZM264,39.78a4,4,0,1,0,4,4A4,4,0,0,0,264,39.78Z" transform="translate(-240 -35.78)" fill="#387abc"/>
  <path id="Path_12460" data-name="Path 12460" d="M16,52A8,8,0,1,1,6,44.253V40H3.287V36H6V32h4v4h2.711v4H10v4.251A8,8,0,0,1,16,52ZM8,48a4,4,0,1,0,4,4A4,4,0,0,0,8,48Z" transform="translate(0 -32)" fill="#387abc"/>
</svg>
