<svg xmlns="http://www.w3.org/2000/svg" width="17.985" height="18" viewBox="0 0 17.985 18">
  <path id="linkedin-logo" d="M7789.283-5855.844c0-1.383.014-3.184-1.938-3.184s-2.243,1.5-2.243,3.075v5.94h-3.74v-12h3.573v1.649h.041a3.9,3.9,0,0,1,3.53-1.94c3.78,0,4.473,2.464,4.473,5.705v6.591l-3.7.014Zm-13.986,5.831v-12h3.726v12Zm-.3-15.827a2.173,2.173,0,0,1,2.173-2.159,2.16,2.16,0,0,1,2.161,2.146v.028a2.176,2.176,0,0,1-2.175,2.161A2.175,2.175,0,0,1,7774.994-5865.84Z" transform="translate(-7774.994 5867.999)" fill="#fefbf9"/>
</svg>
