<svg xmlns="http://www.w3.org/2000/svg" width="32" height="32" viewBox="0 0 32 32">
  <path id="Path_12465" data-name="Path 12465" d="M33.626,32l-1.952-1.986-1.632-1.632L26.2,24.574,11.133,9.521,9.386,7.764,3.954,2.332A1.146,1.146,0,0,0,2.334,3.952l6.117,6.117-.936,2.282-5,12.188A6.847,6.847,0,0,0,5.94,33.4a6.174,6.174,0,0,0,4.9.1,6.608,6.608,0,0,0,3.72-3.675l.217-.514a10.522,10.522,0,0,0,8.662,4.645A10.408,10.408,0,0,0,28,32.883a9.678,9.678,0,0,0,2.02-1.21l1.986,1.986A1.158,1.158,0,1,0,33.626,32ZM13,24.574a11,11,0,0,0,.377,1.94l-1,2.442a4.325,4.325,0,0,1-2.385,2.431,3.937,3.937,0,0,1-3.116-.08,4.565,4.565,0,0,1-2.225-5.9l3.424-8.217L13.78,19.6a10.123,10.123,0,0,0-.662,2.693H20.8l2.282,2.282Zm20.885-2.282H27.11l-6.779-6.779-1.506-1.529L10.345,5.5a6.6,6.6,0,0,1,3.424-3.059,6.231,6.231,0,0,1,4.9.114,6.528,6.528,0,0,1,3.424,3.709,7.007,7.007,0,0,1-.057,5.136l-.708,1.723a9.815,9.815,0,0,1,2.111-.217,10.534,10.534,0,0,1,10.454,9.381Zm0,2.282a10.5,10.5,0,0,1-1,3.424l-3.424-3.424Z" transform="translate(-1.982 -1.996)" fill="#387abc"/>
</svg>
