<svg xmlns="http://www.w3.org/2000/svg" width="32" height="35.268" viewBox="0 0 32 35.268">
  <path id="Path_12457" data-name="Path 12457" d="M57.787,25.171a2.514,2.514,0,0,0,.122-1.352c.608.123,1.146.255,1.6.393,1.015.331.753,1.35-.2,1.233-.421-.1-.932-.189-1.514-.274ZM40.1,25.445c.421-.1.932-.189,1.514-.274a2.515,2.515,0,0,1-.122-1.352c-.608.123-1.147.255-1.6.393-1.015.331-.753,1.35.2,1.233Zm2.573-.383a1.531,1.531,0,0,1,0-1.568l5.668-9.818a1.568,1.568,0,0,1,2.716,0l5.668,9.818a1.568,1.568,0,0,1-1.358,2.352H44.033a1.531,1.531,0,0,1-1.358-.784ZM50.6,23.5a.9.9,0,1,0-.9.9A.9.9,0,0,0,50.6,23.5Zm-1.851-7.657.308,5.069a.529.529,0,0,0,.529.5h.236a.529.529,0,0,0,.529-.5l.308-5.069a.618.618,0,0,0-.617-.655h-.677a.618.618,0,0,0-.617.655Zm12.605,7.512a1.229,1.229,0,1,0-.869-1.506,1.229,1.229,0,0,0,.869,1.506ZM36.834,19.439l.313-.084a.726.726,0,0,0,.524-.847L36.279,11.68a.848.848,0,0,0-1.05-.65l-.9.24a.848.848,0,0,0-.585,1.088l2.209,6.609a.726.726,0,0,0,.877.472ZM65.6,11.689a.82.82,0,0,0-.527-.418l-.9-.24a.848.848,0,0,0-1.05.65l-1.392,6.828a.726.726,0,0,0,.524.847l.313.084a.726.726,0,0,0,.877-.472l2.209-6.609a.82.82,0,0,0-.057-.67Zm-29.053,10.8a1.229,1.229,0,1,0,.869-1.506,1.229,1.229,0,0,0-.869,1.506ZM63.238,32.769c-.39,1.54-1.386,3.256-2.759,3.538a2,2,0,0,1-.9-.025c-1.727,5.9-5.5,9.986-9.873,9.986s-8.146-4.09-9.872-9.986a2,2,0,0,1-.9.025c-1.373-.282-2.369-2-2.759-3.538-.7-2.762.842-3.12,2.69-2.424q-.03-.644-.031-1.3V25.673c0,1.168,4.87,2.114,10.877,2.114s10.877-.946,10.877-2.114v3.373q0,.656-.031,1.3C62.4,29.65,63.937,30.007,63.238,32.769ZM45.373,34.705a.577.577,0,0,0,.409-.169l1.784-1.783a.577.577,0,0,0,.163-.465.57.57,0,0,0-.253-.423l-2.422-1.6a.576.576,0,1,0-.635.96l1.832,1.214-1.284,1.286a.576.576,0,0,0,.406.983Zm8.148,5.889a5.069,5.069,0,0,0-7.641,0,.576.576,0,1,0,.868.757,3.918,3.918,0,0,1,5.906,0,.577.577,0,0,0,.434.2.571.571,0,0,0,.378-.142.577.577,0,0,0,.055-.813Zm1.624-10.17a.576.576,0,0,0-.8-.163l-2.422,1.6a.581.581,0,0,0-.253.423.568.568,0,0,0,.167.465l1.784,1.783a.57.57,0,0,0,.406.169.564.564,0,0,0,.406-.169.574.574,0,0,0,0-.814L53.15,32.436l1.832-1.214a.572.572,0,0,0,.163-.8Z" transform="translate(-33.701 -11)" fill="#387abc" fill-rule="evenodd"/>
</svg>
