<svg xmlns="http://www.w3.org/2000/svg" width="32.001" height="34.981" viewBox="0 0 32.001 34.981">
  <g id="Group_1280" data-name="Group 1280" transform="translate(-21.81)">
    <path id="Path_12451" data-name="Path 12451" d="M173.183,2.789a3.746,3.746,0,0,0-6.019-1.92,3.753,3.753,0,1,0-4.049,6.256,3.761,3.761,0,0,0,4.792,2.964,3.738,3.738,0,0,0,6.349-.523h.348a3.571,3.571,0,0,1,2.977,1.593,1.025,1.025,0,0,0,1.877-.568V9.906A7.185,7.185,0,0,0,173.183,2.789Z" transform="translate(-129.693)" fill="#387abc"/>
    <path id="Path_12452" data-name="Path 12452" d="M29.468,373.2l-6.8,3.928a1.708,1.708,0,0,0-.625,2.333l1.366,2.367a1.708,1.708,0,0,0,2.333.625l6.8-3.928Z" transform="translate(0 -347.706)" fill="#387abc"/>
    <path id="Path_12453" data-name="Path 12453" d="M0,0H18.1V6.149H0Z" transform="matrix(0.866, -0.5, 0.5, 0.866, 31.244, 24.473)" fill="#387abc"/>
    <path id="Path_12454" data-name="Path 12454" d="M416.548,197.58l-1.183.683,3.074,5.325,1.183-.683a1.708,1.708,0,0,0,.625-2.333l-1.366-2.367A1.708,1.708,0,0,0,416.548,197.58Z" transform="translate(-366.666 -183.867)" fill="#387abc"/>
  </g>
</svg>
