<svg xmlns="http://www.w3.org/2000/svg" width="32" height="32.033" viewBox="0 0 32 32.033">
  <g id="Group_1274" data-name="Group 1274" transform="translate(-2.074 -2)">
    <path id="Path_12439" data-name="Path 12439" d="M32.179,21.954a6.8,6.8,0,0,1-.291.979.572.572,0,0,1-.533.364.564.564,0,0,1-.208-.039.572.572,0,0,1-.326-.741,5.686,5.686,0,0,0,.35-1.4v-.02a5.455,5.455,0,0,0,.041-.659A5.7,5.7,0,0,0,27.25,15a6.809,6.809,0,0,1,.477.853.572.572,0,0,1-1.039.478,5.648,5.648,0,0,0-5.924-3.282L19.67,14.715h3.414A1.263,1.263,0,0,1,24,16.832c-1.583,1.68-8.15,8.954-10.04,10.658-.811.731-2.257.1-1.769-1.06l2.989-7.138H11.93a1.565,1.565,0,0,1-1.443-2.13l1.6-4.037a3.358,3.358,0,0,0-.9-.127,3.433,3.433,0,0,0-2.7,1.335,4.554,4.554,0,0,1,.66.25.572.572,0,0,1,.269.76.593.593,0,0,1-.763.271,3.482,3.482,0,0,0-1.468-.328A3.433,3.433,0,0,0,3.859,17.87a4.552,4.552,0,0,1,.953-.248.572.572,0,1,1,.161,1.133,3.412,3.412,0,0,0-1.466.578,3.478,3.478,0,0,0,.487,5.922A.572.572,0,1,1,3.5,26.289a4.577,4.577,0,0,1-.655-.387,4.582,4.582,0,0,0,4.334,3.117h.035a5.788,5.788,0,0,1-.023-.95.566.566,0,0,1,.609-.534.572.572,0,0,1,.534.609,4.57,4.57,0,0,0,8.234,3.032c-.2-.13-.4-.268-.586-.415a.572.572,0,0,1,.7-.9A6.955,6.955,0,0,0,26.943,27.7a4.561,4.561,0,0,1-.691-1.378.572.572,0,1,1,1.1-.326,3.433,3.433,0,1,0,4.831-4.041Z" transform="translate(0 -4.705)" fill="#387abc"/>
    <path id="Path_12440" data-name="Path 12440" d="M27.018,7.493l.01-.015,2.32-3.532A1.233,1.233,0,0,0,29.4,2.664,1.254,1.254,0,0,0,28.285,2h-4.52a1.238,1.238,0,0,0-1.158.787l-4,10.1a.394.394,0,0,0,.036.374.413.413,0,0,0,.343.184h3.463a1,1,0,0,1,.923,1.389L20.525,21.64l9.7-10.3a.1.1,0,0,0,.024-.118.108.108,0,0,0-.106-.069H26.514a1.025,1.025,0,0,1-.868-1.576Z" transform="translate(-7.061 0)" fill="#387abc"/>
    <path id="Path_12441" data-name="Path 12441" d="M45.2,41.238a4.608,4.608,0,0,1-2.873-1.02A8.056,8.056,0,0,1,36.1,44.07a5.4,5.4,0,0,0,3.49,2.184c2.723.537,6.751-.846,6.751-4.159a3.389,3.389,0,0,0-.146-.973A4.56,4.56,0,0,1,45.2,41.238Z" transform="translate(-14.558 -16.351)" fill="#387abc"/>
    <path id="Path_12442" data-name="Path 12442" d="M31.321,46.422a8.074,8.074,0,0,1-2.645-.687,5.707,5.707,0,0,1-.671.777,1.716,1.716,0,0,0,1.714,1.663,1.755,1.755,0,0,1,1.344.582l3.309,3.791a.617.617,0,0,0,1.068-.4V49.621A6.215,6.215,0,0,1,31.321,46.422Z" transform="translate(-11.094 -18.712)" fill="#387abc"/>
  </g>
</svg>
